
<svg width="27" height="20" viewBox="0 0 27 20" fill="none" xmlns="http://www.w3.org/2000/svg">
<path d="M9.91309 20C9.63681 20 9.36054 19.8973 9.14243 19.6774L0.316259 10.7754C-0.10542 10.3501 -0.10542 9.6462 0.316259 9.2209L9.14243 0.318973C9.56411 -0.106324 10.2621 -0.106324 10.6837 0.318973C11.1054 0.744271 11.1054 1.44821 10.6837 1.87351L2.62822 9.99817L10.6837 18.1228C11.1054 18.5481 11.1054 19.2521 10.6837 19.6774C10.4802 19.8973 10.1894 20 9.91309 20Z" fill="currentColor"/>
<path d="M25.8953 11H1.10475C0.500818 11 0 10.5467 0 10C0 9.45333 0.500818 9 1.10475 9H25.8953C26.4992 9 27 9.45333 27 10C27 10.5467 26.4992 11 25.8953 11Z" fill="currentColor"/>
</svg>
