<svg width="40" height="40" viewBox="0 0 40 40" fill="none" xmlns="http://www.w3.org/2000/svg">
<path d="M21.3658 14.298C21.3658 9.97047 17.9439 6.44922 13.7383 6.44922C13.3927 6.44922 13.1133 6.72922 13.1133 7.07422C13.1133 7.41922 13.3927 7.69922 13.7383 7.69922C17.2552 7.69922 20.1158 10.6592 20.1158 14.298C20.1158 14.643 20.3952 14.923 20.7408 14.923C21.0864 14.923 21.3658 14.643 21.3658 14.298Z" fill="currentColor"/>
<path d="M35.9128 10.8975C35.9128 5.57813 31.5847 1.25 26.2647 1.25C23.0659 1.25 20.0578 2.86125 18.2697 5.4925C16.8828 4.75 15.3278 4.35812 13.7341 4.35812C8.41406 4.35812 4.08594 8.68625 4.08594 14.0056C4.08594 18.2244 7.01594 25.325 11.5022 27.2394L10.3347 29.2594C10.2228 29.4531 10.2228 29.6912 10.3347 29.8844C10.4466 30.0775 10.6528 30.1969 10.8759 30.1969H13.1084V38.1244C13.1084 38.4694 13.3878 38.7494 13.7334 38.7494C14.0791 38.7494 14.3584 38.4694 14.3584 38.1244V30.1969H16.5903C16.8134 30.1969 17.0203 30.0775 17.1316 29.8844C17.2434 29.6906 17.2434 29.4525 17.1316 29.2594L15.9634 27.2381C17.8584 26.4181 19.6741 24.5544 21.0978 21.9613C22.0291 22.9594 23.0234 23.6931 24.0303 24.1281L22.8616 26.1506C22.7497 26.3444 22.7497 26.5825 22.8616 26.7756C22.9734 26.9688 23.1797 27.0881 23.4028 27.0881H25.6353V35.0156C25.6353 35.3606 25.9147 35.6406 26.2603 35.6406C26.6059 35.6406 26.8853 35.3606 26.8853 35.0156V27.0881H29.1172C29.3403 27.0881 29.5472 26.9694 29.6584 26.7756C29.7697 26.5819 29.7703 26.3438 29.6584 26.1506L28.4922 24.1319C32.9809 22.2162 35.9109 15.1163 35.9109 10.8975H35.9128ZM11.9597 28.9475L12.7253 27.6238C12.7772 27.6338 12.8303 27.6381 12.8828 27.6463C12.9484 27.6569 13.0141 27.6662 13.0803 27.675C13.2791 27.6994 13.4784 27.7156 13.6791 27.7175C13.6978 27.7175 13.7159 27.7213 13.7347 27.7213C13.7559 27.7213 13.7766 27.7169 13.7978 27.7169C13.9909 27.7144 14.1841 27.7 14.3759 27.6763C14.4503 27.6675 14.5247 27.6562 14.5978 27.6444C14.6459 27.6362 14.6947 27.6325 14.7428 27.6231L15.5084 28.9469H11.9591L11.9597 28.9475ZM14.8778 26.3069C14.8778 26.3069 14.8759 26.3069 14.8753 26.3069C14.1241 26.5269 13.3372 26.5244 12.5934 26.3069C12.5922 26.3069 12.5909 26.3069 12.5897 26.3069C8.68344 25.1887 5.33719 18.61 5.33719 14.0063C5.33719 9.37562 9.10406 5.60875 13.7353 5.60875C15.3041 5.60875 16.8297 6.0425 18.1491 6.86375C20.6434 8.40813 22.1328 11.0781 22.1328 14.0063C22.1328 14.2444 22.1228 14.4913 22.1028 14.7456C21.9647 16.5244 21.3528 18.6506 20.4078 20.5881C18.9109 23.6481 16.8972 25.7312 14.8778 26.3069ZM24.4872 25.8381L25.2528 24.5144C25.3009 24.5238 25.3497 24.5275 25.3978 24.535C25.4709 24.5469 25.5447 24.5575 25.6184 24.5669C25.8059 24.59 25.9947 24.6044 26.1841 24.6069C26.2116 24.6069 26.2384 24.6125 26.2659 24.6125C26.2991 24.6125 26.3316 24.6062 26.3647 24.6056C26.5428 24.6025 26.7203 24.5894 26.8978 24.5681C26.9753 24.5587 27.0534 24.5475 27.1303 24.5344C27.1778 24.5263 27.2253 24.5231 27.2722 24.5138L28.0372 25.8375H24.4878L24.4872 25.8381ZM27.4128 23.1969C27.4097 23.1975 27.4066 23.1969 27.4034 23.1981C26.6522 23.4181 25.8659 23.4156 25.1209 23.1981C25.1178 23.1975 25.1147 23.1981 25.1116 23.1969C23.9647 22.87 22.7928 22.0337 21.7047 20.77C21.7509 20.67 21.7916 20.5688 21.8359 20.4688C21.8947 20.3363 21.9534 20.2044 22.0084 20.0719C22.0784 19.9044 22.1441 19.7375 22.2091 19.5694C22.2609 19.4363 22.3128 19.3038 22.3609 19.1706C22.4222 19.0019 22.4784 18.8331 22.5347 18.6644C22.5784 18.5325 22.6241 18.4006 22.6647 18.2687C22.7172 18.0981 22.7641 17.9294 22.8109 17.76C22.8466 17.6313 22.8847 17.5025 22.9172 17.3744C22.9609 17.2019 22.9978 17.0319 23.0359 16.8612C23.0628 16.7388 23.0934 16.615 23.1172 16.4931C23.1522 16.3169 23.1791 16.1444 23.2072 15.9706C23.2253 15.8581 23.2472 15.7444 23.2628 15.6331C23.2891 15.4431 23.3059 15.2581 23.3234 15.0725C23.3322 14.9825 23.3453 14.89 23.3516 14.8019C23.3716 14.53 23.3822 14.2644 23.3822 14.0056C23.3822 13.6319 23.3578 13.2631 23.3166 12.8981C23.3134 12.8694 23.3116 12.84 23.3084 12.8112C23.2659 12.4637 23.2016 12.1219 23.1228 11.785C23.1128 11.7425 23.1041 11.6994 23.0941 11.6569C23.0128 11.33 22.9128 11.0094 22.7984 10.695C22.7809 10.6475 22.7647 10.5994 22.7466 10.5519C22.6284 10.2431 22.4947 9.94125 22.3453 9.64688C22.3216 9.6 22.2978 9.55375 22.2728 9.50688C22.1191 9.215 21.9503 8.93062 21.7672 8.65562C21.7397 8.61438 21.7109 8.57438 21.6828 8.53312C21.4922 8.25688 21.2884 7.99 21.0691 7.73438C21.0422 7.70312 21.0134 7.67313 20.9859 7.64188C20.7566 7.38125 20.5141 7.13125 20.2553 6.895C20.2366 6.87812 20.2166 6.86187 20.1972 6.845C19.9247 6.6 19.6391 6.3675 19.3359 6.15188C19.3359 6.15188 19.3347 6.15062 19.3341 6.15062C20.8947 3.885 23.4991 2.5 26.2659 2.5C30.8966 2.5 34.6641 6.26688 34.6641 10.8975C34.6641 15.4994 31.3203 22.0738 27.4141 23.1969H27.4128Z" fill="currentColor"/>
<path d="M26.2656 3.34375C25.92 3.34375 25.6406 3.62375 25.6406 3.96875C25.6406 4.31375 25.92 4.59375 26.2656 4.59375C29.7819 4.59375 32.6425 7.55375 32.6425 11.1919C32.6425 11.5369 32.9219 11.8169 33.2675 11.8169C33.6131 11.8169 33.8925 11.5369 33.8925 11.1919C33.8925 6.86437 30.4706 3.34375 26.2656 3.34375Z" fill="currentColor"/>
<path d="M18.3005 13.6719L15.4937 13.3331L14.3043 10.7681C14.2018 10.5475 13.9805 10.4062 13.7374 10.4062C13.4943 10.4062 13.273 10.5475 13.1705 10.7687L11.9818 13.3331L9.17492 13.6719C8.93304 13.7006 8.73054 13.8675 8.65554 14.0994C8.58054 14.3313 8.64617 14.585 8.82492 14.7506L10.8962 16.6744L10.3505 19.4481C10.3037 19.6869 10.3993 19.9313 10.5968 20.0744C10.7062 20.1531 10.8349 20.1938 10.9643 20.1938C11.0687 20.1938 11.1737 20.1675 11.268 20.115L13.738 18.7394L16.208 20.115C16.4199 20.2338 16.6824 20.2181 16.8793 20.075C17.0755 19.9319 17.1724 19.6875 17.1255 19.4488L16.5805 16.675L18.6518 14.7513C18.8299 14.5856 18.8962 14.3319 18.8212 14.1C18.7462 13.8687 18.5437 13.7019 18.3018 13.6725L18.3005 13.6719ZM15.4737 15.995C15.3149 16.1425 15.2443 16.3612 15.2855 16.5738L15.638 18.3669L14.0405 17.4775C13.9462 17.425 13.8418 17.3987 13.7368 17.3987C13.6318 17.3987 13.5274 17.425 13.433 17.4775L11.8362 18.3669L12.1887 16.5738C12.2299 16.3612 12.1593 16.1425 12.0005 15.995L10.6612 14.7513L12.4755 14.5319C12.6905 14.5056 12.8768 14.3706 12.9674 14.1744L13.7355 12.5169L14.5043 14.175C14.5955 14.3713 14.7812 14.5063 14.9962 14.5325L16.8105 14.7519L15.4712 15.9956L15.4737 15.995Z" fill="currentColor"/>
</svg>
