<svg width="250" height="250" viewBox="0 0 250 250" fill="none" xmlns="http://www.w3.org/2000/svg">
<path d="M38.0869 116.823L119.117 210.206C119.85 211.051 120.755 211.729 121.772 212.194C122.79 212.658 123.895 212.898 125.013 212.898C126.131 212.898 127.237 212.658 128.254 212.194C129.271 211.729 130.177 211.051 130.909 210.206L211.915 116.823C212.16 116.541 212.319 116.195 212.372 115.826C212.426 115.457 212.373 115.08 212.218 114.741C212.064 114.401 211.815 114.113 211.502 113.911C211.188 113.709 210.823 113.601 210.45 113.6H190.675C189.552 113.6 188.478 114.088 187.721 114.943L134.278 176.539L134.278 39.0639C134.278 37.9897 133.399 37.1108 132.325 37.1108H117.677C116.603 37.1108 115.724 37.9897 115.724 39.0639L115.724 176.539L62.2812 114.943C61.5488 114.088 60.4746 113.6 59.3271 113.6H39.5517C37.8916 113.6 36.9883 115.553 38.0869 116.823Z" fill="currentColor"/>
</svg>
