<svg width="119" height="113" viewBox="0 0 119 113" fill="none" xmlns="http://www.w3.org/2000/svg">
<path d="M14.7563 1.4247L0.0663314 105.273C-0.0670116 106.213 0.00307629 107.169 0.271866 108.079C0.54065 108.989 1.00184 109.83 1.6242 110.546C2.24656 111.262 3.01554 111.836 3.87903 112.229C4.74253 112.622 5.68036 112.824 6.62899 112.823L111.498 112.713C111.814 112.713 112.124 112.622 112.39 112.451C112.656 112.28 112.868 112.036 112.999 111.748C113.131 111.461 113.177 111.141 113.132 110.828C113.087 110.515 112.953 110.221 112.746 109.982L101.74 97.3211C101.115 96.6021 100.205 96.1861 99.2363 96.1771L30.0583 96.2429L118.073 19.7329C118.761 19.1351 118.834 18.0832 118.236 17.3955L110.084 8.01726C109.486 7.32952 108.434 7.25597 107.747 7.85382L19.732 84.3638L29.4249 15.8682C29.5643 14.9237 29.2791 13.9642 28.6405 13.2296L17.6348 0.569C16.7109 -0.493864 14.9577 0.014799 14.7563 1.4247Z" fill="currentColor"/>
</svg>
