<svg width="16" height="13" viewBox="0 0 16 13" fill="none" xmlns="http://www.w3.org/2000/svg">
<path d="M1.17833 4.75583L0.589167 5.345L0 4.75583L0.589167 4.16667L1.17833 4.75583ZM15.345 11.4225C15.345 11.6435 15.2572 11.8555 15.1009 12.0118C14.9446 12.168 14.7327 12.2558 14.5117 12.2558C14.2907 12.2558 14.0787 12.168 13.9224 12.0118C13.7661 11.8555 13.6783 11.6435 13.6783 11.4225H15.345ZM4.75583 9.51167L0.589167 5.345L1.7675 4.16667L5.93417 8.33333L4.75583 9.51167ZM0.589167 4.16667L4.75583 0L5.93417 1.17833L1.7675 5.345L0.589167 4.16667ZM1.17833 3.9225H9.51167V5.58917H1.17833V3.9225ZM15.345 9.75583V11.4225H13.6783V9.75583H15.345ZM9.51167 3.9225C11.0588 3.9225 12.5425 4.53708 13.6365 5.63104C14.7304 6.72501 15.345 8.20874 15.345 9.75583H13.6783C13.6783 8.65076 13.2393 7.59096 12.4579 6.80955C11.6765 6.02815 10.6167 5.58917 9.51167 5.58917V3.9225Z" fill="currentColor"/>
</svg>
