<svg width="40" height="40" viewBox="0 0 40 40" fill="none" xmlns="http://www.w3.org/2000/svg">
<path d="M35 12.918H5C4.31667 12.918 3.75 12.3513 3.75 11.668C3.75 10.9846 4.31667 10.418 5 10.418H35C35.6833 10.418 36.25 10.9846 36.25 11.668C36.25 12.3513 35.6833 12.918 35 12.918Z" fill="white"/>
<path d="M35 21.25H5C4.31667 21.25 3.75 20.6833 3.75 20C3.75 19.3167 4.31667 18.75 5 18.75H35C35.6833 18.75 36.25 19.3167 36.25 20C36.25 20.6833 35.6833 21.25 35 21.25Z" fill="white"/>
<path d="M35 29.582H5C4.31667 29.582 3.75 29.0154 3.75 28.332C3.75 27.6487 4.31667 27.082 5 27.082H35C35.6833 27.082 36.25 27.6487 36.25 28.332C36.25 29.0154 35.6833 29.582 35 29.582Z" fill="white"/>
</svg>
