<svg width="40" height="40" viewBox="0 0 40 40" fill="none" xmlns="http://www.w3.org/2000/svg">
<path d="M13.333 9.58203C12.6497 9.58203 12.083 9.01536 12.083 8.33203V3.33203C12.083 2.6487 12.6497 2.08203 13.333 2.08203C14.0163 2.08203 14.583 2.6487 14.583 3.33203V8.33203C14.583 9.01536 14.0163 9.58203 13.333 9.58203Z" fill="#D40063"/>
<path d="M26.667 9.58203C25.9837 9.58203 25.417 9.01536 25.417 8.33203V3.33203C25.417 2.6487 25.9837 2.08203 26.667 2.08203C27.3503 2.08203 27.917 2.6487 27.917 3.33203V8.33203C27.917 9.01536 27.3503 9.58203 26.667 9.58203Z" fill="#D40063"/>
<path d="M14.1667 24.1678C13.95 24.1678 13.7333 24.1179 13.5333 24.0345C13.3167 23.9512 13.15 23.8345 12.9833 23.6845C12.6833 23.3678 12.5 22.9512 12.5 22.5012C12.5 22.2845 12.55 22.0678 12.6333 21.8678C12.7167 21.6678 12.8333 21.4845 12.9833 21.3179C13.15 21.1679 13.3167 21.0511 13.5333 20.9678C14.1333 20.7178 14.8833 20.8512 15.35 21.3179C15.65 21.6345 15.8333 22.0678 15.8333 22.5012C15.8333 22.6012 15.8167 22.7179 15.8 22.8345C15.7833 22.9345 15.75 23.0345 15.7 23.1345C15.6667 23.2345 15.6167 23.3345 15.55 23.4345C15.5 23.5178 15.4167 23.6012 15.35 23.6845C15.0333 23.9845 14.6 24.1678 14.1667 24.1678Z" fill="#D40063"/>
<path d="M19.9997 24.1674C19.783 24.1674 19.5663 24.1175 19.3663 24.0341C19.1497 23.9508 18.983 23.8341 18.8163 23.6841C18.5163 23.3674 18.333 22.9508 18.333 22.5008C18.333 22.2841 18.383 22.0674 18.4663 21.8674C18.5497 21.6674 18.6663 21.4841 18.8163 21.3174C18.983 21.1674 19.1497 21.0507 19.3663 20.9674C19.9663 20.7007 20.7163 20.8508 21.183 21.3174C21.483 21.6341 21.6663 22.0674 21.6663 22.5008C21.6663 22.6008 21.6497 22.7175 21.633 22.8341C21.6163 22.9341 21.583 23.0341 21.533 23.1341C21.4997 23.2341 21.4497 23.3341 21.383 23.4341C21.333 23.5174 21.2497 23.6008 21.183 23.6841C20.8663 23.9841 20.433 24.1674 19.9997 24.1674Z" fill="#D40063"/>
<path d="M25.8337 24.1674C25.617 24.1674 25.4003 24.1175 25.2003 24.0341C24.9837 23.9508 24.817 23.8341 24.6503 23.6841C24.5837 23.6008 24.517 23.5174 24.4503 23.4341C24.3837 23.3341 24.3337 23.2341 24.3003 23.1341C24.2503 23.0341 24.217 22.9341 24.2003 22.8341C24.1837 22.7175 24.167 22.6008 24.167 22.5008C24.167 22.0674 24.3503 21.6341 24.6503 21.3174C24.817 21.1674 24.9837 21.0507 25.2003 20.9674C25.817 20.7007 26.5503 20.8508 27.017 21.3174C27.317 21.6341 27.5003 22.0674 27.5003 22.5008C27.5003 22.6008 27.4837 22.7175 27.467 22.8341C27.4503 22.9341 27.417 23.0341 27.367 23.1341C27.3337 23.2341 27.2837 23.3341 27.217 23.4341C27.167 23.5174 27.0837 23.6008 27.017 23.6841C26.7003 23.9841 26.267 24.1674 25.8337 24.1674Z" fill="#D40063"/>
<path d="M14.1667 30C13.95 30 13.7333 29.95 13.5333 29.8667C13.3333 29.7833 13.15 29.6666 12.9833 29.5166C12.6833 29.2 12.5 28.7667 12.5 28.3333C12.5 28.1167 12.55 27.9 12.6333 27.7C12.7167 27.4833 12.8333 27.3 12.9833 27.15C13.6 26.5333 14.7333 26.5333 15.35 27.15C15.65 27.4667 15.8333 27.9 15.8333 28.3333C15.8333 28.7667 15.65 29.2 15.35 29.5166C15.0333 29.8166 14.6 30 14.1667 30Z" fill="#D40063"/>
<path d="M19.9997 30C19.5663 30 19.133 29.8166 18.8163 29.5166C18.5163 29.2 18.333 28.7667 18.333 28.3333C18.333 28.1167 18.383 27.9 18.4663 27.7C18.5497 27.4833 18.6663 27.3 18.8163 27.15C19.433 26.5333 20.5663 26.5333 21.183 27.15C21.333 27.3 21.4497 27.4833 21.533 27.7C21.6163 27.9 21.6663 28.1167 21.6663 28.3333C21.6663 28.7667 21.483 29.2 21.183 29.5166C20.8663 29.8166 20.433 30 19.9997 30Z" fill="#D40063"/>
<path d="M25.8337 29.9989C25.4003 29.9989 24.967 29.8155 24.6503 29.5155C24.5003 29.3655 24.3837 29.1822 24.3003 28.9656C24.217 28.7656 24.167 28.5489 24.167 28.3322C24.167 28.1155 24.217 27.8989 24.3003 27.6989C24.3837 27.4822 24.5003 27.2989 24.6503 27.1489C25.0337 26.7656 25.617 26.5822 26.1503 26.6989C26.267 26.7155 26.367 26.7489 26.467 26.7989C26.567 26.8322 26.667 26.8822 26.767 26.9489C26.8503 26.9989 26.9337 27.0822 27.017 27.1489C27.317 27.4656 27.5003 27.8989 27.5003 28.3322C27.5003 28.7655 27.317 29.1989 27.017 29.5155C26.7003 29.8155 26.267 29.9989 25.8337 29.9989Z" fill="#D40063"/>
<path d="M34.1663 16.4023H5.83301C5.14967 16.4023 4.58301 15.8357 4.58301 15.1523C4.58301 14.469 5.14967 13.9023 5.83301 13.9023H34.1663C34.8497 13.9023 35.4163 14.469 35.4163 15.1523C35.4163 15.8357 34.8497 16.4023 34.1663 16.4023Z" fill="#D40063"/>
<path d="M26.6667 37.9154H13.3333C7.25 37.9154 3.75 34.4154 3.75 28.332V14.1654C3.75 8.08203 7.25 4.58203 13.3333 4.58203H26.6667C32.75 4.58203 36.25 8.08203 36.25 14.1654V28.332C36.25 34.4154 32.75 37.9154 26.6667 37.9154ZM13.3333 7.08203C8.56667 7.08203 6.25 9.3987 6.25 14.1654V28.332C6.25 33.0987 8.56667 35.4154 13.3333 35.4154H26.6667C31.4333 35.4154 33.75 33.0987 33.75 28.332V14.1654C33.75 9.3987 31.4333 7.08203 26.6667 7.08203H13.3333Z" fill="#D40063"/>
</svg>
