<svg width="50" height="50" viewBox="0 0 50 50" fill="none" xmlns="http://www.w3.org/2000/svg">
<g fill="none">
<path d="M49.2311 49.1918H0.769531V26.8051C0.769531 12.4439 11.6165 0.804688 25.0003 0.804688C38.3841 0.804688 49.2311 12.4439 49.2311 26.8051V49.1918Z" stroke="#D40063" stroke-width="2" stroke-miterlimit="10" stroke-linecap="round" stroke-linejoin="round"/>
<path d="M0.769531 38.5859H49.2311" stroke="#D40063" stroke-width="2" stroke-miterlimit="10" stroke-linecap="round" stroke-linejoin="round"/>
<path d="M0.769531 41.9648H49.2311" stroke="#D40063" stroke-width="2" stroke-miterlimit="10" stroke-linecap="round" stroke-linejoin="round"/>
<path d="M0.769531 49.193C0.769531 46.6587 2.65026 44.6406 5.01211 44.6406H6.19302C8.55484 44.6406 10.4356 46.6587 10.4356 49.193" stroke="#D40063" stroke-width="2" stroke-miterlimit="10" stroke-linecap="round" stroke-linejoin="round"/>
<path d="M10.4355 49.193C10.4355 46.6587 12.3163 44.6406 14.6782 44.6406H15.859C18.2209 44.6406 20.1016 46.6587 20.1016 49.193" stroke="#D40063" stroke-width="2" stroke-miterlimit="10" stroke-linecap="round" stroke-linejoin="round"/>
<path d="M20.1445 49.193C20.1445 46.6587 22.0252 44.6406 24.3871 44.6406H25.568C27.9298 44.6406 29.8105 46.6587 29.8105 49.193" stroke="#D40063" stroke-width="2" stroke-miterlimit="10" stroke-linecap="round" stroke-linejoin="round"/>
<path d="M29.8105 49.193C29.8105 46.6587 31.6913 44.6406 34.0532 44.6406H35.2341C37.5959 44.6406 39.4766 46.6587 39.4766 49.193" stroke="#D40063" stroke-width="2" stroke-miterlimit="10" stroke-linecap="round" stroke-linejoin="round"/>
<path d="M39.4766 49.193C39.4766 46.6587 41.3573 44.6406 43.7192 44.6406H44.9C47.2619 44.6406 49.1426 46.6587 49.1426 49.193" stroke="#D40063" stroke-width="2" stroke-miterlimit="10" stroke-linecap="round" stroke-linejoin="round"/>
<path d="M28.849 21.4082H21.1074V38.5854H28.849V21.4082Z" stroke="#D40063" stroke-width="2" stroke-miterlimit="10" stroke-linecap="round" stroke-linejoin="round"/>
<path d="M33.3106 17.2793L31.3424 24.6945H28.8931V21.4093H21.1078V24.6945H18.6584L16.6465 17.2793H33.3106Z" stroke="#D40063" stroke-width="2" stroke-miterlimit="10" stroke-linecap="round" stroke-linejoin="round"/>
<path d="M23.6442 17.2808C23.6442 17.2808 22.5508 14.8872 23.6442 11.2734" stroke="#D40063" stroke-width="2" stroke-miterlimit="10" stroke-linecap="round" stroke-linejoin="round"/>
<path d="M26.4004 17.2808C26.4004 17.2808 27.4939 14.8872 26.4004 11.2734" stroke="#D40063" stroke-width="2" stroke-miterlimit="10" stroke-linecap="round" stroke-linejoin="round"/>
</g>
</svg>
