<svg width="40" height="40" viewBox="0 0 40 40" fill="none" xmlns="http://www.w3.org/2000/svg">
<path d="M36.666 12.084H26.666C25.9827 12.084 25.416 11.5173 25.416 10.834C25.416 10.1507 25.9827 9.58398 26.666 9.58398H36.666C37.3493 9.58398 37.916 10.1507 37.916 10.834C37.916 11.5173 37.3493 12.084 36.666 12.084Z" fill="currentColor"/>
<path d="M10.0007 12.084H3.33398C2.65065 12.084 2.08398 11.5173 2.08398 10.834C2.08398 10.1507 2.65065 9.58398 3.33398 9.58398H10.0007C10.684 9.58398 11.2507 10.1507 11.2507 10.834C11.2507 11.5173 10.684 12.084 10.0007 12.084Z" fill="currentColor"/>
<path d="M16.6673 17.9167C12.7673 17.9167 9.58398 14.7333 9.58398 10.8333C9.58398 6.93333 12.7673 3.75 16.6673 3.75C20.5673 3.75 23.7507 6.93333 23.7507 10.8333C23.7507 14.7333 20.5673 17.9167 16.6673 17.9167ZM16.6673 6.25C14.134 6.25 12.084 8.3 12.084 10.8333C12.084 13.3667 14.134 15.4167 16.6673 15.4167C19.2007 15.4167 21.2507 13.3667 21.2507 10.8333C21.2507 8.3 19.2007 6.25 16.6673 6.25Z" fill="currentColor"/>
<path d="M36.6667 30.416H30C29.3167 30.416 28.75 29.8493 28.75 29.166C28.75 28.4827 29.3167 27.916 30 27.916H36.6667C37.35 27.916 37.9167 28.4827 37.9167 29.166C37.9167 29.8493 37.35 30.416 36.6667 30.416Z" fill="currentColor"/>
<path d="M13.334 30.416H3.33398C2.65065 30.416 2.08398 29.8493 2.08398 29.166C2.08398 28.4827 2.65065 27.916 3.33398 27.916H13.334C14.0173 27.916 14.584 28.4827 14.584 29.166C14.584 29.8493 14.0173 30.416 13.334 30.416Z" fill="currentColor"/>
<path d="M23.3333 36.2507C19.4333 36.2507 16.25 33.0673 16.25 29.1673C16.25 25.2673 19.4333 22.084 23.3333 22.084C27.2333 22.084 30.4167 25.2673 30.4167 29.1673C30.4167 33.0673 27.2333 36.2507 23.3333 36.2507ZM23.3333 24.584C20.8 24.584 18.75 26.634 18.75 29.1673C18.75 31.7007 20.8 33.7507 23.3333 33.7507C25.8667 33.7507 27.9167 31.7007 27.9167 29.1673C27.9167 26.634 25.8667 24.584 23.3333 24.584Z" fill="currentColor"/>
</svg>
