<svg width="40" height="40" viewBox="0 0 40 40" fill="none" xmlns="http://www.w3.org/2000/svg">
<path d="M25.4328 37.0844H14.5661C6.38281 37.0844 2.88281 33.5844 2.88281 25.4011V25.1844C2.88281 17.7844 5.79948 14.2178 12.3328 13.6011C12.9995 13.5511 13.6328 14.0511 13.6995 14.7344C13.7661 15.4178 13.2661 16.0344 12.5661 16.1011C7.33281 16.5844 5.38281 19.0511 5.38281 25.2011V25.4178C5.38281 32.2011 7.78281 34.6011 14.5661 34.6011H25.4328C32.2161 34.6011 34.6161 32.2011 34.6161 25.4178V25.2011C34.6161 19.0178 32.6328 16.5511 27.2995 16.1011C26.6161 16.0344 26.0995 15.4344 26.1661 14.7511C26.2328 14.0678 26.8161 13.5511 27.5161 13.6178C34.1495 14.1844 37.1161 17.7678 37.1161 25.2178V25.4344C37.1161 33.5844 33.6161 37.0844 25.4328 37.0844Z" fill="currentColor"/>
<path d="M20 26.0487C19.3167 26.0487 18.75 25.482 18.75 24.7987V3.33203C18.75 2.6487 19.3167 2.08203 20 2.08203C20.6833 2.08203 21.25 2.6487 21.25 3.33203V24.7987C21.25 25.4987 20.6833 26.0487 20 26.0487Z" fill="currentColor"/>
<path d="M19.9991 27.9151C19.6824 27.9151 19.3658 27.7984 19.1158 27.5484L13.5324 21.9651C13.0491 21.4818 13.0491 20.6818 13.5324 20.1984C14.0158 19.7151 14.8158 19.7151 15.2991 20.1984L19.9991 24.8984L24.6991 20.1984C25.1824 19.7151 25.9824 19.7151 26.4658 20.1984C26.9491 20.6818 26.9491 21.4818 26.4658 21.9651L20.8824 27.5484C20.6324 27.7984 20.3158 27.9151 19.9991 27.9151Z" fill="currentColor"/>
</svg>
