<svg width="60" height="60" viewBox="0 0 60 60" fill="" xmlns="http://www.w3.org/2000/svg" fill="none">
<g fill="none">
<path d="M9 56.2495V45.1738L10.8581 47.0511L12.6543 45.1738V48.8032H15.5653V45.1738L17.1757 47.0511L18.9718 45.1738V48.8658H21.5732V56.2495H9Z" stroke="#D40063" stroke-width="2" stroke-miterlimit="10" stroke-linecap="round" stroke-linejoin="round"/>
<path d="M50.2489 56.2495V45.1738L48.3908 47.0511L46.5946 45.1738V48.8032H43.6837V45.1738L42.0113 47.0511L40.2771 45.1738V48.8658H37.6758V56.2495H50.2489Z" stroke="#D40063" stroke-width="2" stroke-miterlimit="10" stroke-linecap="round" stroke-linejoin="round"/>
<path d="M37.6778 41.4199H21.5742V56.25H37.6778V41.4199Z" stroke="#D40063" stroke-width="2" stroke-miterlimit="10" stroke-linecap="round" stroke-linejoin="round"/>
<path d="M35.3855 32.4082H23.8652V41.4189H35.3855V32.4082Z" stroke="#D40063" stroke-width="2" stroke-miterlimit="10" stroke-linecap="round" stroke-linejoin="round"/>
<path d="M34.0835 21.709H25.2266V32.4718H34.0835V21.709Z" stroke="#D40063" stroke-width="2" stroke-miterlimit="10" stroke-linecap="round" stroke-linejoin="round"/>
<path d="M34.0216 21.7094H25.2266L29.5622 8.25586H29.6241L34.0216 21.7094Z" stroke="#D40063" stroke-width="2" stroke-miterlimit="10" stroke-linecap="round" stroke-linejoin="round"/>
<path d="M25.2266 28.7793H34.0216" stroke="#D40063" stroke-width="2" stroke-miterlimit="10" stroke-linecap="round" stroke-linejoin="round"/>
<path d="M31.4844 21.709V28.7799" stroke="#D40063" stroke-width="2" stroke-miterlimit="10" stroke-linecap="round" stroke-linejoin="round"/>
<path d="M27.7051 21.709V28.7799" stroke="#D40063" stroke-width="2" stroke-miterlimit="10" stroke-linecap="round" stroke-linejoin="round"/>
<path d="M21.5742 52.1836H37.6778" stroke="#D40063" stroke-width="2" stroke-miterlimit="10" stroke-linecap="round" stroke-linejoin="round"/>
<path d="M29.625 41.4199V45.5498" stroke="#D40063" stroke-width="2" stroke-miterlimit="10" stroke-linecap="round" stroke-linejoin="round"/>
<path d="M25.2266 41.4199V45.5498" stroke="#D40063" stroke-width="2" stroke-miterlimit="10" stroke-linecap="round" stroke-linejoin="round"/>
<path d="M29.625 47.8027V49.3671" stroke="#D40063" stroke-width="2" stroke-miterlimit="10" stroke-linecap="round" stroke-linejoin="round"/>
<path d="M27.0859 47.8027V49.3671" stroke="#D40063" stroke-width="2" stroke-miterlimit="10" stroke-linecap="round" stroke-linejoin="round"/>
<path d="M24.6074 47.8027V49.3671" stroke="#D40063" stroke-width="2" stroke-miterlimit="10" stroke-linecap="round" stroke-linejoin="round"/>
<path d="M32.1016 47.8027V49.3671" stroke="#D40063" stroke-width="2" stroke-miterlimit="10" stroke-linecap="round" stroke-linejoin="round"/>
<path d="M34.6426 47.8027V49.3671" stroke="#D40063" stroke-width="2" stroke-miterlimit="10" stroke-linecap="round" stroke-linejoin="round"/>
<path d="M34.0234 41.4199V45.5498" stroke="#D40063" stroke-width="2" stroke-miterlimit="10" stroke-linecap="round" stroke-linejoin="round"/>
<path d="M29.6253 39.4807C31.0278 39.4807 32.1647 38.3321 32.1647 36.9152C32.1647 35.4982 31.0278 34.3496 29.6253 34.3496C28.2229 34.3496 27.0859 35.4982 27.0859 36.9152C27.0859 38.3321 28.2229 39.4807 29.6253 39.4807Z" stroke="#D40063" stroke-width="2" stroke-miterlimit="10" stroke-linecap="round" stroke-linejoin="round"/>
<path d="M29.625 35.7891V36.9154H30.616" stroke="#D40063" stroke-width="2" stroke-miterlimit="10" stroke-linecap="round" stroke-linejoin="round"/>
<path d="M22.1914 39.4805V41.0449" stroke="#D40063" stroke-width="2" stroke-miterlimit="10" stroke-linecap="round" stroke-linejoin="round"/>
<path d="M37.0586 39.4805V41.0449" stroke="#D40063" stroke-width="2" stroke-miterlimit="10" stroke-linecap="round" stroke-linejoin="round"/>
<path d="M27.6426 5.06445L29.6246 5.75277L31.4827 5.06445" stroke="#D40063" stroke-width="2" stroke-miterlimit="10" stroke-linecap="round" stroke-linejoin="round"/>
<path d="M29.5625 5.68945L30.9251 7.12867" stroke="#D40063" stroke-width="2" stroke-miterlimit="10" stroke-linecap="round" stroke-linejoin="round"/>
<path d="M28.1992 7.12867L29.6238 5.68945" stroke="#D40063" stroke-width="2" stroke-miterlimit="10" stroke-linecap="round" stroke-linejoin="round"/>
<path d="M29.5625 3.75V6.00269" stroke="#D40063" stroke-width="2" stroke-miterlimit="10" stroke-linecap="round" stroke-linejoin="round"/></g>
</svg>
