<svg width="24" height="24" viewBox="0 0 24 24" fill="none" xmlns="http://www.w3.org/2000/svg">
<path d="M11.9999 14.1714C9.86988 14.1714 8.12988 12.4414 8.12988 10.3014C8.12988 8.16141 9.86988 6.44141 11.9999 6.44141C14.1299 6.44141 15.8699 8.17141 15.8699 10.3114C15.8699 12.4514 14.1299 14.1714 11.9999 14.1714ZM11.9999 7.94141C10.6999 7.94141 9.62988 9.00141 9.62988 10.3114C9.62988 11.6214 10.6899 12.6814 11.9999 12.6814C13.3099 12.6814 14.3699 11.6214 14.3699 10.3114C14.3699 9.00141 13.2999 7.94141 11.9999 7.94141Z" fill="currentColor"/>
<path d="M11.9987 22.76C10.5187 22.76 9.02871 22.2 7.86871 21.09C4.91871 18.25 1.65871 13.72 2.88871 8.33C3.99871 3.44 8.26871 1.25 11.9987 1.25C11.9987 1.25 11.9987 1.25 12.0087 1.25C15.7387 1.25 20.0087 3.44 21.1187 8.34C22.3387 13.73 19.0787 18.25 16.1287 21.09C14.9687 22.2 13.4787 22.76 11.9987 22.76ZM11.9987 2.75C9.08871 2.75 5.34871 4.3 4.35871 8.66C3.27871 13.37 6.23871 17.43 8.91871 20C10.6487 21.67 13.3587 21.67 15.0887 20C17.7587 17.43 20.7187 13.37 19.6587 8.66C18.6587 4.3 14.9087 2.75 11.9987 2.75Z" fill="currentColor"/>
</svg>
