<svg viewBox="0 0 300 30" fill="none" xmlns="http://www.w3.org/2000/svg">
<path d="M30.2292 30H30.1137C27.3026 30 25.7237 29.2559 23.8753 27.4935C21.3723 29.1775 18.3686 30 15.3264 30C7.27812 30 0 23.7337 0 15.1175C0 6.46214 6.85453 0 15.3649 0C23.6058 0 30.6914 6.10966 30.6914 15.235C30.6914 19.3473 28.92 22.9896 25.9933 25.8094C27.0715 26.7885 28.3423 27.376 30.0367 27.376H30.2292V30ZM23.9138 23.9295C26.3399 21.5013 27.8417 18.6031 27.8417 15.1567C27.8417 8.22454 22.2965 2.62402 15.3264 2.62402C8.54891 2.62402 2.84964 8.10705 2.84964 15.2742C2.84964 16.4883 3.00367 17.4674 3.35025 18.564C5.3912 17.8982 7.23962 17.5849 9.3961 17.5849C14.5562 17.5849 18.3686 19.0731 23.9138 23.9295ZM21.6803 25.4961C19.7164 23.8903 18.2916 22.8721 17.3674 22.3238C15.4805 21.2272 12.3228 20.2089 8.89549 20.2089C7.39365 20.2089 6.08436 20.3655 4.50551 21.0313C5.93032 23.8903 9.8582 27.376 15.4034 27.376C17.6754 27.376 19.8319 26.8668 21.6803 25.4961Z" fill="currentColor"/>
<path d="M51.4511 18.9948V0.509139H54.3007V18.8773C54.3007 26.201 50.1033 30 44.5966 30C39.1669 30 34.8924 26.3185 34.8924 18.799V0.509139H37.742V18.9556C37.742 24.7911 40.8227 27.376 44.5966 27.376C47.8698 27.376 51.4511 25.3003 51.4511 18.9948Z" fill="currentColor"/>
<path d="M84.7466 29.4909H81.6274L77.507 19.7389H64.26L60.1011 29.4909H57.1359L69.3046 0.509139H72.5009L84.7466 29.4909ZM76.3902 17.1149L70.922 3.79896L65.3383 17.1149H76.3902Z" fill="currentColor"/>
<path d="M91.6851 29.4909H88.8354V3.13316H82.289V0.509139H98.193V3.13316H91.6851V29.4909Z" fill="currentColor"/>
<path d="M108.457 29.4909H105.608V3.13316H99.0613V0.509139H114.965V3.13316H108.457V29.4909Z" fill="currentColor"/>
<path d="M136.83 29.4909H133.248L123.583 16.3708H126.355C131.4 16.3708 134.404 13.7467 134.404 9.79112C134.404 7.04961 132.748 3.13316 126.201 3.13316H120.772V29.4909H117.922V0.509139H126.509C133.942 0.509139 137.253 4.97389 137.253 9.86945C137.253 14.5692 133.788 18.2898 128.781 18.6815L136.83 29.4909Z" fill="currentColor"/>
<path d="M170.426 15C170.426 23.1854 163.609 30 155.33 30C147.551 30 140.273 23.577 140.273 15.1567C140.273 6.81462 146.974 0 155.33 0C163.609 0 170.426 6.73629 170.426 15ZM167.576 15.0392C167.576 8.34204 162.146 2.62402 155.292 2.62402C148.553 2.62402 143.123 8.42036 143.123 15.1567C143.123 21.6971 148.707 27.376 155.33 27.376C162.146 27.376 167.576 21.6971 167.576 15.0392Z" fill="currentColor"/>
<path d="M200.288 7.87206H197.439C197.439 4.89556 195.051 2.62402 192.394 2.62402C189.467 2.62402 187.234 4.8564 187.234 7.67624C187.234 10.1436 188.697 11.671 192.741 12.7285C198.902 14.3342 200.981 17.5849 200.981 21.5013C200.981 26.2402 197.169 30 192.394 30C187.349 30 183.691 26.5535 183.614 21.3838H186.464C186.656 25.1044 188.967 27.376 192.394 27.376C195.629 27.376 198.132 24.7911 198.132 21.6188C198.132 18.4856 196.091 16.7232 192.356 15.6266C188.274 14.4517 184.384 13.0809 184.384 7.79373C184.384 3.21149 188.004 0 192.394 0C196.823 0 200.288 3.40731 200.288 7.87206Z" fill="currentColor"/>
<path d="M207.684 29.4909H204.834V0.509139H213.46C221.316 0.509139 223.665 5.24804 223.665 9.24282C223.665 13.1201 221.2 17.8198 213.422 17.8198H207.684V29.4909ZM207.684 15.1958H214.038C218.004 15.1958 220.815 12.7676 220.815 9.16449C220.815 6.26632 219.005 3.13316 213.422 3.13316H207.684V15.1958Z" fill="currentColor"/>
<path d="M249.95 29.4909H246.831L242.71 19.7389H229.463L225.304 29.4909H222.339L234.508 0.509139H237.704L249.95 29.4909ZM241.594 17.1149L236.125 3.79896L230.542 17.1149H241.594Z" fill="currentColor"/>
<path d="M276.877 21.893H280.073C277.3 26.9452 272.333 30 266.941 30C258.816 30 252.038 23.4595 252.038 15.0392C252.038 6.54047 258.7 0.039164 266.903 0.039164C272.178 0.039164 277.685 3.13316 279.957 7.95039H276.761C274.566 4.62141 270.715 2.66318 266.864 2.66318C260.51 2.66318 254.888 8.3812 254.888 15.0783C254.888 21.5796 260.51 27.376 266.903 27.376C270.792 27.376 274.296 25.3786 276.877 21.893Z" fill="currentColor"/>
<path d="M300 29.4909H284.404V0.509139H300V3.13316H287.254V13.5509H299.576V16.1749H287.254V26.8668H300V29.4909Z" fill="currentColor"/>
</svg>
