<svg width="24" height="24" viewBox="0 0 24 24" fill="none" xmlns="http://www.w3.org/2000/svg">
<path d="M17 21.25H7C3.35 21.25 1.25 19.15 1.25 15.5V8.5C1.25 4.85 3.35 2.75 7 2.75H17C20.65 2.75 22.75 4.85 22.75 8.5V15.5C22.75 19.15 20.65 21.25 17 21.25ZM7 4.25C4.14 4.25 2.75 5.64 2.75 8.5V15.5C2.75 18.36 4.14 19.75 7 19.75H17C19.86 19.75 21.25 18.36 21.25 15.5V8.5C21.25 5.64 19.86 4.25 17 4.25H7Z" fill="currentColor"/>
<path d="M11.9998 12.8719C11.1598 12.8719 10.3098 12.6119 9.65978 12.0819L6.52978 9.58192C6.20978 9.32192 6.14978 8.85192 6.40978 8.53192C6.66978 8.21192 7.13978 8.15193 7.45978 8.41193L10.5898 10.9119C11.3498 11.5219 12.6398 11.5219 13.3998 10.9119L16.5298 8.41193C16.8498 8.15193 17.3298 8.20192 17.5798 8.53192C17.8398 8.85192 17.7898 9.33192 17.4598 9.58192L14.3298 12.0819C13.6898 12.6119 12.8398 12.8719 11.9998 12.8719Z" fill="currentColor"/>
</svg>
