<svg width="40" height="40" viewBox="0 0 40 40" fill="none" xmlns="http://www.w3.org/2000/svg">
<path d="M37.67 33.7774H36.1387V14.8355C36.1387 13.8018 35.2975 12.9605 34.2637 12.9605H26.8081C25.9431 12.3412 24.8906 11.998 23.8137 11.998H15.2762C14.1975 11.998 13.1431 12.3418 12.2812 12.9605H4.8325C3.79875 12.9605 2.9575 13.8018 2.9575 14.8355V33.7774H1.42188C1.07688 33.7774 0.796875 34.0574 0.796875 34.4024V35.1455C0.796875 37.1105 2.395 38.7087 4.36 38.7087H34.7319C36.6969 38.7087 38.295 37.1105 38.295 35.1455V34.4024C38.295 34.0574 38.015 33.7774 37.67 33.7774ZM28.9456 16.4105H32.6887V31.5793H25.0513V29.3605H28.3825C28.7275 29.3605 29.0075 29.0805 29.0075 28.7355V17.2112C29.0075 16.9405 28.9869 16.673 28.9456 16.4105ZM23.8137 13.248C24.6887 13.248 25.5437 13.5424 26.2256 14.0799C26.8581 14.568 27.3175 15.223 27.5594 15.9855C27.6906 16.3749 27.7575 16.7868 27.7575 17.2105V28.1105H25.0513V17.9112C25.0513 17.5662 24.7712 17.2862 24.4263 17.2862C24.0812 17.2862 23.8013 17.5662 23.8013 17.9112V31.5799H15.2825V28.7518C15.2825 28.7462 15.2856 28.7418 15.2856 28.7368C15.2856 28.7318 15.2825 28.7268 15.2825 28.7218V17.9112C15.2825 17.5662 15.0025 17.2862 14.6575 17.2862C14.3125 17.2862 14.0325 17.5662 14.0325 17.9112V28.1112H11.3325V17.2112C11.3325 16.7887 11.3994 16.3762 11.5344 15.9749C11.7725 15.2237 12.2325 14.5687 12.8694 14.0768C13.5463 13.543 14.4012 13.2487 15.2762 13.2487H23.8137V13.248ZM10.0825 17.2105V28.7355C10.0825 29.0805 10.3625 29.3605 10.7075 29.3605H14.0325V31.5793H6.40125V16.4105H10.1444C10.1031 16.673 10.0825 16.9405 10.0825 17.2105ZM4.2075 14.8355C4.2075 14.4912 4.48812 14.2105 4.8325 14.2105H11.0281C10.8206 14.5055 10.6581 14.828 10.5188 15.1605H5.77688C5.43187 15.1605 5.15188 15.4405 5.15188 15.7855V32.2043C5.15188 32.5493 5.43187 32.8293 5.77688 32.8293H33.3137C33.6587 32.8293 33.9387 32.5493 33.9387 32.2043V15.7855C33.9387 15.4405 33.6587 15.1605 33.3137 15.1605H28.5712C28.5312 15.0662 28.5019 14.9674 28.4569 14.8755C28.4319 14.8249 28.3969 14.7793 28.37 14.7293C28.275 14.5518 28.1775 14.3755 28.0619 14.2105H34.2637C34.6081 14.2105 34.8887 14.4912 34.8887 14.8355V33.7774H4.2075V14.8355ZM37.045 35.1455C37.045 36.4212 36.0075 37.4587 34.7319 37.4587H4.36C3.08437 37.4587 2.04688 36.4212 2.04688 35.1455V35.0274H3.57188C3.57562 35.0274 3.57875 35.0293 3.5825 35.0293H35.5137C35.5175 35.0293 35.5206 35.0274 35.5244 35.0274H37.045V35.1455Z" fill="currentColor"/>
<path d="M11.7517 35.6172H6.99609C6.65109 35.6172 6.37109 35.8972 6.37109 36.2422C6.37109 36.5872 6.65109 36.8672 6.99609 36.8672H11.7517C12.0967 36.8672 12.3767 36.5872 12.3767 36.2422C12.3767 35.8972 12.0967 35.6172 11.7517 35.6172Z" fill="currentColor"/>
<path d="M32.0922 35.6172H27.3359C26.9909 35.6172 26.7109 35.8972 26.7109 36.2422C26.7109 36.5872 26.9909 36.8672 27.3359 36.8672H32.0922C32.4372 36.8672 32.7172 36.5872 32.7172 36.2422C32.7172 35.8972 32.4372 35.6172 32.0922 35.6172Z" fill="currentColor"/>
<path d="M19.5434 11.4052C22.3628 11.4052 24.6572 9.11148 24.6572 6.29148C24.6572 3.47148 22.3628 1.17773 19.5434 1.17773C16.7241 1.17773 14.4297 3.47148 14.4297 6.29148C14.4297 9.11148 16.7234 11.4052 19.5434 11.4052ZM19.5434 2.42773C21.6741 2.42773 23.4072 4.16086 23.4072 6.29148C23.4072 8.42211 21.6741 10.1552 19.5434 10.1552C17.4128 10.1552 15.6797 8.42211 15.6797 6.29148C15.6797 4.16086 17.4128 2.42773 19.5434 2.42773Z" fill="currentColor"/>
</svg>
