<svg width="40" height="40" viewBox="0 0 40 40" fill="none" xmlns="http://www.w3.org/2000/svg" xmlns:xlink="http://www.w3.org/1999/xlink">
<g>
<mask id="mask0_2201_15616" style="mask-type:luminance" maskUnits="userSpaceOnUse" x="0" y="0" width="40" height="40">
<path d="M25.376 0H25.304H21.492H14.624C2.58 0 0 2.584 0 14.624V25.376C0 37.42 2.584 40 14.624 40H21.492H25.304H25.376C37.42 40 40 37.416 40 25.376V14.624C40 2.58 37.416 0 25.376 0Z" fill="white"/>
</mask>
<g mask="url(#mask0_2201_15616)">
<rect width="40" height="40" fill="url(#pattern0_2201_15616)"/>
</g>
<path fill-rule="evenodd" clip-rule="evenodd" d="M20.4846 12.3276C16.5077 12.1191 13.4043 14.8786 12.7199 19.1978C12.1532 22.7745 13.158 27.1329 14.0174 27.3522C14.382 27.4453 15.2592 26.7743 15.8974 26.1725C16.0174 26.0593 16.1988 26.0403 16.3395 26.1263C17.3344 26.7347 18.4608 27.1919 19.7026 27.257C23.7854 27.4711 27.4034 24.2757 27.6173 20.1927C27.8311 16.1096 24.5673 12.5417 20.4846 12.3276ZM13.825 33.0631C13.671 32.9541 13.4589 32.9837 13.3298 33.1213C11.605 34.9609 7.19087 36.2513 6.98867 33.7405C6.98867 31.7733 6.54682 30.1156 6.06034 28.2904C5.46453 26.055 4.80176 23.5684 4.80176 19.9545C4.80176 11.3366 11.8695 4.85547 20.2495 4.85547C28.6295 4.85547 35.1998 11.653 35.1998 20.0382C35.1998 28.4233 28.4204 35.0534 20.3288 35.0534C17.4581 35.0534 16.0651 34.6491 13.825 33.0631Z" fill="white"/>
</g>
<defs>
<pattern id="pattern0_2201_15616" patternContentUnits="objectBoundingBox" width="1" height="1">
<use href="#image0_2201_15616" transform="scale(0.001)"/>
</pattern>
<clipPath id="clip0_2201_15616">
<rect width="40" height="40" fill="white"/>
</clipPath>
</defs>
</svg>
