<svg width="40" height="40" viewBox="0 0 40 40" fill="none" xmlns="http://www.w3.org/2000/svg">
<g fill="none">
<path d="M32.4534 0.102031C32.0098 0.0342969 31.5589 0 31.1132 0C29.0041 0 26.9529 0.764453 25.3371 2.15242C23.7065 3.5532 22.629 5.50102 22.3031 7.63703C22.2247 8.15125 22.1911 8.67281 22.2014 9.19187L19.1127 12.5737L2.50157 30.7611C1.58555 31.7057 2.4536 33.5199 3.83727 35.0903L0.230865 38.6641C-0.0753846 38.9672 -0.0769471 39.4625 0.226178 39.7687C0.373834 39.918 0.570709 40 0.780865 40C0.987897 40 1.18321 39.9195 1.33087 39.7734L4.9411 36.1952C6.06399 37.1858 7.31235 37.9133 8.2786 37.9133C8.6643 37.9133 9.00524 37.7973 9.27508 37.536L27.4151 21.0378L27.4152 21.0377L27.4154 21.0375L30.8029 17.953C30.897 17.9559 30.991 17.958 31.0845 17.958C31.0845 17.958 31.0846 17.958 31.0848 17.958C33.1936 17.958 35.2449 17.1936 36.8606 15.8058C38.4913 14.4051 39.5689 12.4573 39.8948 10.3212C40.6416 5.42625 37.3034 0.841953 32.4534 0.102031ZM24.1023 21.9386C23.5527 21.8334 23.0203 21.6688 22.5191 21.4469C22.4183 21.4016 22.312 21.3789 22.2027 21.3789C21.8933 21.3789 21.6128 21.5617 21.4878 21.8438C21.4034 22.0344 21.398 22.2469 21.473 22.4414C21.548 22.6367 21.6941 22.7898 21.8847 22.875C22.157 22.9956 22.4365 23.1018 22.7214 23.1945L8.25305 36.3534C8.25032 36.3535 8.24751 36.3535 8.24469 36.3535C7.88743 36.3535 6.7736 35.8523 5.47915 34.5578C4.17446 33.2531 3.67563 32.1321 3.68344 31.7841L16.9753 17.2309C17.0595 17.5077 17.1559 17.7811 17.2652 18.0493C17.3856 18.3446 17.6699 18.5352 17.9887 18.5352C18.0902 18.5352 18.1895 18.5157 18.2832 18.4774C18.6824 18.3141 18.8746 17.8571 18.7121 17.4587C18.4991 16.9367 18.343 16.3919 18.2469 15.8387L19.2297 14.7626C19.6349 16.1471 20.3607 17.4366 21.3485 18.4958C22.4313 19.6566 23.7515 20.4773 25.225 20.9176L24.1023 21.9386ZM26.6319 19.6377C23.1379 19.0902 20.9593 16.1638 20.5121 13.3584L22.4743 11.2099C22.828 12.6083 23.5138 13.9161 24.4807 14.9997C25.6342 16.2925 27.1452 17.2146 28.806 17.6579L26.6319 19.6377ZM31.0845 16.3955C30.9144 16.3955 30.742 16.3894 30.572 16.3774C30.3729 16.3634 30.1737 16.3412 29.9802 16.3118C26.5814 15.7931 23.9711 12.9026 23.7735 9.43867C23.7438 8.9175 23.7687 8.39062 23.8477 7.87273C23.9024 7.51477 23.9835 7.16609 24.087 6.8275C24.2833 7.60727 24.5888 8.51008 25.0669 9.45914C26.17 11.6488 28.409 14.453 32.9035 16.1577C32.3185 16.3119 31.7089 16.3955 31.0845 16.3955ZM38.3502 10.0855C38.0204 12.2468 36.7606 14.0877 35.0287 15.2139C30.9541 14.072 28.0843 11.9233 26.4962 8.82273C25.4681 6.8157 25.3233 5.01102 25.3035 4.4707C26.665 2.69719 28.7904 1.5625 31.1132 1.5625C31.4802 1.5625 31.8519 1.59078 32.2177 1.64664C36.216 2.25664 38.967 6.04227 38.3502 10.0855Z" fill="currentColor"/>
<path d="M20.234 19.8289C20.0848 19.6719 19.884 19.5859 19.6676 19.5859C19.4668 19.5859 19.2762 19.6617 19.1301 19.8C18.8176 20.0961 18.8043 20.5914 19.1004 20.9039C19.1004 20.9039 19.1004 20.9047 19.1012 20.9047C19.2496 21.0617 19.4512 21.1484 19.6684 21.1484C19.8691 21.1484 20.0598 21.0719 20.2051 20.9336C20.5184 20.6375 20.5308 20.1422 20.2348 19.8297C20.2348 19.8289 20.234 19.8289 20.234 19.8289Z" fill="currentColor"/>
</g>
<defs>
<clipPath id="clip0_2227_18466">
<rect width="40" height="40" fill="white"/>
</clipPath>
</defs>
</svg>
