<svg width="20" height="26" viewBox="0 0 20 26" fill="none" xmlns="http://www.w3.org/2000/svg">
<path d="M8.4375 25.625C3.7875 25.625 0 21.8375 0 17.1875V9.6875C0 4.35 4.35 0 9.6875 0C15.025 0 19.375 4.35 19.375 9.6875V16.5625C19.375 19.4875 16.9875 21.875 14.0625 21.875C11.1375 21.875 8.75 19.4875 8.75 16.5625V12.1875C8.75 11.675 9.175 11.25 9.6875 11.25C10.2 11.25 10.625 11.675 10.625 12.1875V16.5625C10.625 18.4625 12.1625 20 14.0625 20C15.9625 20 17.5 18.4625 17.5 16.5625V9.6875C17.5 5.375 14 1.875 9.6875 1.875C5.375 1.875 1.875 5.375 1.875 9.6875V17.1875C1.875 20.8 4.8125 23.75 8.4375 23.75C8.95 23.75 9.375 24.175 9.375 24.6875C9.375 25.2 8.9625 25.625 8.4375 25.625Z" fill="currentColor"/>
</svg>
