<svg width="40" height="40" viewBox="0 0 40 40" fill="none" xmlns="http://www.w3.org/2000/svg">
<path d="M29.083 37.9154C27.1997 37.9154 25.2163 37.4654 23.1663 36.5987C21.1663 35.7487 19.1497 34.582 17.183 33.1654C15.233 31.732 13.3497 30.132 11.5663 28.382C9.79967 26.5987 8.19968 24.7154 6.78301 22.782C5.34967 20.782 4.19967 18.782 3.38301 16.8487C2.51634 14.782 2.08301 12.782 2.08301 10.8987C2.08301 9.5987 2.31634 8.36536 2.76634 7.21536C3.23301 6.03203 3.98301 4.93203 4.99967 3.98203C6.28301 2.71536 7.74967 2.08203 9.31634 2.08203C9.96634 2.08203 10.633 2.23203 11.1997 2.4987C11.8497 2.7987 12.3997 3.2487 12.7997 3.8487L16.6663 9.2987C17.0163 9.78203 17.283 10.2487 17.4663 10.7154C17.683 11.2154 17.7997 11.7154 17.7997 12.1987C17.7997 12.832 17.6163 13.4487 17.2663 14.032C17.0163 14.482 16.633 14.9654 16.1497 15.4487L15.0163 16.632C15.033 16.682 15.0497 16.7154 15.0663 16.7487C15.2663 17.0987 15.6663 17.6987 16.433 18.5987C17.2497 19.532 18.0163 20.382 18.783 21.1654C19.7663 22.132 20.583 22.8987 21.3497 23.532C22.2997 24.332 22.9163 24.732 23.283 24.9154L23.2497 24.9987L24.4663 23.7987C24.983 23.282 25.483 22.8987 25.9663 22.6487C26.883 22.082 28.0497 21.982 29.2163 22.4654C29.6497 22.6487 30.1163 22.8987 30.6163 23.2487L36.1497 27.182C36.7663 27.5987 37.2163 28.132 37.483 28.7654C37.733 29.3987 37.8497 29.982 37.8497 30.5654C37.8497 31.3654 37.6663 32.1654 37.3163 32.9154C36.9663 33.6654 36.533 34.3154 35.983 34.9154C35.033 35.9654 33.9997 36.7154 32.7997 37.1987C31.6497 37.6654 30.3997 37.9154 29.083 37.9154ZM9.31634 4.58203C8.39967 4.58203 7.54967 4.98203 6.73301 5.78203C5.96634 6.4987 5.43301 7.28203 5.09967 8.13203C4.74967 8.9987 4.58301 9.91536 4.58301 10.8987C4.58301 12.4487 4.94967 14.132 5.68301 15.8654C6.43301 17.632 7.48301 19.4654 8.81634 21.2987C10.1497 23.132 11.6663 24.9154 13.333 26.5987C14.9997 28.2487 16.7997 29.782 18.6497 31.132C20.4497 32.4487 22.2997 33.5154 24.133 34.282C26.983 35.4987 29.6497 35.782 31.8497 34.8654C32.6997 34.5154 33.4497 33.982 34.133 33.2154C34.5163 32.7987 34.8163 32.3487 35.0663 31.8154C35.2663 31.3987 35.3663 30.9654 35.3663 30.532C35.3663 30.2654 35.3163 29.9987 35.183 29.6987C35.133 29.5987 35.033 29.4154 34.7163 29.1987L29.183 25.2654C28.8497 25.032 28.5497 24.8654 28.2663 24.7487C27.8997 24.5987 27.7497 24.4487 27.183 24.7987C26.8497 24.9654 26.5497 25.2154 26.2163 25.5487L24.9497 26.7987C24.2997 27.432 23.2997 27.582 22.533 27.2987L22.083 27.0987C21.3997 26.732 20.5997 26.1654 19.7163 25.4154C18.9163 24.732 18.0497 23.932 16.9997 22.8987C16.183 22.0654 15.3663 21.182 14.5163 20.1987C13.733 19.282 13.1663 18.4987 12.8163 17.8487L12.6163 17.3487C12.5163 16.9654 12.483 16.7487 12.483 16.5154C12.483 15.9154 12.6997 15.382 13.1163 14.9654L14.3663 13.6654C14.6997 13.332 14.9497 13.0154 15.1163 12.732C15.2497 12.5154 15.2997 12.332 15.2997 12.1654C15.2997 12.032 15.2497 11.832 15.1663 11.632C15.0497 11.3654 14.8663 11.0654 14.633 10.7487L10.7663 5.28203C10.5997 5.0487 10.3997 4.88203 10.1497 4.76536C9.88301 4.6487 9.59968 4.58203 9.31634 4.58203ZM23.2497 25.0154L22.983 26.1487L23.433 24.982C23.3497 24.9654 23.283 24.982 23.2497 25.0154Z" fill="currentColor"/>
</svg>
