<svg width="40" height="40" viewBox="0 0 40 40" fill="none" xmlns="http://www.w3.org/2000/svg">
<path d="M39.2032 6.38281H0.796797C0.356719 6.38281 0 6.73953 0 7.17961V29.538C0 29.978 0.356719 30.3348 0.796797 30.3348H15.9011L14.2117 32.0241H11.9123C11.4723 32.0241 11.1155 32.3809 11.1155 32.8209C11.1155 33.261 11.4723 33.6177 11.9123 33.6177H28.0877C28.5277 33.6177 28.8845 33.261 28.8845 32.8209C28.8845 32.3809 28.5277 32.0241 28.0877 32.0241H25.7883L24.0989 30.3348H39.2032C39.6433 30.3348 40 29.978 40 29.538V7.17961C40 6.73953 39.6433 6.38281 39.2032 6.38281ZM16.4655 32.0241L18.1548 30.3347H21.8451L23.5344 32.0241H16.4655ZM38.4064 28.7412H1.59359V7.97648H38.4063L38.4064 28.7412Z" fill="currentColor"/>
<path d="M3.34758 16.8047C2.9075 16.8047 2.55078 17.1614 2.55078 17.6015V17.9202C2.55078 18.3603 2.9075 18.717 3.34758 18.717C3.78766 18.717 4.14437 18.3603 4.14437 17.9202V17.6015C4.14437 17.1614 3.78766 16.8047 3.34758 16.8047Z" fill="currentColor"/>
<path d="M3.34758 19.5938C2.9075 19.5938 2.55078 19.9505 2.55078 20.3905V26.9244C2.55078 27.3645 2.9075 27.7212 3.34758 27.7212C3.78766 27.7212 4.14437 27.3645 4.14437 26.9244V20.3905C4.14437 19.9505 3.78766 19.5938 3.34758 19.5938Z" fill="currentColor"/>
</svg>
