<svg width="50" height="50" viewBox="0 0 50 50" fill="none" xmlns="http://www.w3.org/2000/svg">
<g fill="none">
<path d="M6.39844 2.08594C6.39844 2.53424 6.39844 43.4981 6.39844 43.4981H48.415" stroke="#D40063" stroke-width="2" stroke-miterlimit="10" stroke-linecap="round" stroke-linejoin="round"/>
<path d="M15.2852 1.02052C15.6291 0.908437 49.3914 1.02052 49.3914 1.02052V34.139" stroke="#D40063" stroke-width="2" stroke-miterlimit="10" stroke-linecap="round" stroke-linejoin="round"/>
<path d="M0.609375 7.74579C0.666698 7.63374 6.39883 2.08594 6.39883 2.08594L12.1883 7.74579" stroke="#D40063" stroke-width="2" stroke-miterlimit="10" stroke-linecap="round" stroke-linejoin="round"/>
<path d="M42.6836 37.8379C42.7982 37.8939 48.473 43.4977 48.473 43.4977L42.6836 49.1576" stroke="#D40063" stroke-width="2" stroke-miterlimit="10" stroke-linecap="round" stroke-linejoin="round"/>
<path d="M6.39844 43.4984L49.3895 1.02148" stroke="#D40063" stroke-width="2" stroke-miterlimit="10" stroke-linecap="round" stroke-linejoin="round"/>
<path d="M36.0909 0.962891L6.39844 30.3269" stroke="#D40063" stroke-width="2" stroke-miterlimit="10" stroke-linecap="round" stroke-linejoin="round"/>
<path d="M25.0279 0.962891L6.39844 19.3434" stroke="#D40063" stroke-width="2" stroke-miterlimit="10" stroke-linecap="round" stroke-linejoin="round"/>
<path d="M49.3893 11.3301L16.7734 43.4959" stroke="#D40063" stroke-width="2" stroke-miterlimit="10" stroke-linecap="round" stroke-linejoin="round"/>
<path d="M49.3914 24.668L30.2461 43.4968" stroke="#D40063" stroke-width="2" stroke-miterlimit="10" stroke-linecap="round" stroke-linejoin="round"/>
</g>
</svg>
