<svg width="40" height="40" viewBox="0 0 40 40" fill="none" xmlns="http://www.w3.org/2000/svg">
<g fill="none">
<path d="M1.25 39.3753H23.75C23.9158 39.3753 24.0747 39.3095 24.1919 39.1923C24.3092 39.075 24.375 38.9161 24.375 38.7503V32.5003C24.3716 29.9599 23.5549 27.4873 22.0446 25.4446C20.5343 23.4019 18.4097 21.8963 15.9819 21.1484C17.0474 20.6822 18.0098 20.0093 18.8133 19.1685C19.6169 18.3277 20.2456 17.3358 20.6631 16.2503H21.25C21.9688 16.2491 22.6652 16.0002 23.2218 15.5455C23.7785 15.0908 24.1614 14.4581 24.306 13.754C24.4506 13.0499 24.348 12.3175 24.0157 11.6802C23.6833 11.0429 23.1414 10.5397 22.4813 10.2553C22.3897 7.66926 21.298 5.21966 19.4362 3.42255C17.5744 1.62543 15.0877 0.621094 12.5 0.621094C9.91232 0.621094 7.42564 1.62543 5.5638 3.42255C3.70195 5.21966 2.61028 7.66926 2.51875 10.2553C1.85863 10.5397 1.31673 11.0429 0.98435 11.6802C0.651973 12.3175 0.549448 13.0499 0.694049 13.754C0.838651 14.4581 1.22154 15.0908 1.77819 15.5455C2.33485 16.0002 3.03123 16.2491 3.75 16.2503H4.33687C4.75438 17.3358 5.38312 18.3277 6.18668 19.1685C6.99023 20.0093 7.95263 20.6822 9.01812 21.1484C6.59029 21.8963 4.46567 23.4019 2.95536 25.4446C1.44506 27.4873 0.628411 29.9599 0.625 32.5003V38.7503C0.625 38.9161 0.690848 39.075 0.808058 39.1923C0.925268 39.3095 1.08424 39.3753 1.25 39.3753ZM23.125 32.5003V38.1253H13.125V27.7591L17.6625 23.2216C19.3167 24.1417 20.6952 25.4869 21.6555 27.1181C22.6159 28.7493 23.1232 30.6074 23.125 32.5003ZM23.125 13.1253C23.125 13.6226 22.9275 14.0995 22.5758 14.4511C22.2242 14.8028 21.7473 15.0003 21.25 15.0003H21.0425C21.3192 13.7656 21.3192 12.485 21.0425 11.2503H21.25C21.7473 11.2503 22.2242 11.4479 22.5758 11.7995C22.9275 12.1511 23.125 12.628 23.125 13.1253ZM12.5 1.87532C14.7105 1.87875 16.8379 2.71829 18.455 4.22538C20.0721 5.73247 21.0592 7.79553 21.2181 10.0003H20.6631C20.0328 8.34594 18.9146 6.92214 17.4568 5.91757C15.999 4.913 14.2704 4.37508 12.5 4.37508C10.7296 4.37508 9.00098 4.913 7.54319 5.91757C6.0854 6.92214 4.96724 8.34594 4.33687 10.0003H3.78188C3.94079 7.79553 4.9279 5.73247 6.54501 4.22538C8.16212 2.71829 10.2895 1.87875 12.5 1.87532ZM18.0744 8.12532H14.375C13.712 8.12532 13.0761 8.38871 12.6072 8.85755C12.1384 9.32639 11.875 9.96227 11.875 10.6253C11.875 10.9568 11.7433 11.2748 11.5089 11.5092C11.2745 11.7436 10.9565 11.8753 10.625 11.8753H5.11312C5.34524 10.4839 5.96599 9.18653 6.90377 8.13278C7.84155 7.07903 9.05814 6.31188 10.4132 5.91984C11.7682 5.52779 13.2065 5.52683 14.562 5.91706C15.9176 6.3073 17.1352 7.07282 18.0744 8.12532ZM3.75 15.0003C3.25272 15.0003 2.77581 14.8028 2.42417 14.4511C2.07254 14.0995 1.875 13.6226 1.875 13.1253C1.875 12.628 2.07254 12.1511 2.42417 11.7995C2.77581 11.4479 3.25272 11.2503 3.75 11.2503H3.9575C3.68083 12.485 3.68083 13.7656 3.9575 15.0003H3.75ZM5 13.1253H10.625C11.288 13.1253 11.9239 12.8619 12.3928 12.3931C12.8616 11.9242 13.125 11.2884 13.125 10.6253C13.125 10.2938 13.2567 9.97585 13.4911 9.74143C13.7255 9.50701 14.0435 9.37532 14.375 9.37532H18.985C19.561 10.371 19.9001 11.4858 19.9761 12.6336C20.0521 13.7813 19.863 14.9312 19.4234 15.9941C18.9837 17.057 18.3054 18.0045 17.4408 18.7632C16.5763 19.5219 15.5487 20.0715 14.4377 20.3694C13.3267 20.6673 12.1621 20.7056 11.0339 20.4812C9.90576 20.2568 8.84437 19.7758 7.93192 19.0754C7.01946 18.3751 6.28042 17.4741 5.77201 16.4423C5.26359 15.4105 4.99944 14.2756 5 13.1253ZM16.4656 22.6509L12.5 26.6166L8.53437 22.6509C11.077 21.6168 13.923 21.6168 16.4656 22.6509ZM1.875 32.5003C1.87684 30.6074 2.38413 28.7493 3.34445 27.1181C4.30477 25.4869 5.68327 24.1417 7.3375 23.2216L11.875 27.7591V38.1253H1.875V32.5003Z" fill="#D40063"/>
<path d="M15.625 29.375H14.375V30.625H15.625V29.375Z" fill="#D40063"/>
<path d="M15.625 31.875H14.375V33.125H15.625V31.875Z" fill="#D40063"/>
<path d="M15.625 34.375H14.375V35.625H15.625V34.375Z" fill="#D40063"/>
<path d="M10 30.625H5C4.83424 30.625 4.67527 30.6908 4.55806 30.8081C4.44085 30.9253 4.375 31.0842 4.375 31.25V33.75C4.375 34.5788 4.70424 35.3737 5.29029 35.9597C5.87634 36.5458 6.6712 36.875 7.5 36.875C8.3288 36.875 9.12366 36.5458 9.70971 35.9597C10.2958 35.3737 10.625 34.5788 10.625 33.75V31.25C10.625 31.0842 10.5592 30.9253 10.4419 30.8081C10.3247 30.6908 10.1658 30.625 10 30.625ZM9.375 33.75C9.375 34.2473 9.17746 34.7242 8.82583 35.0758C8.47419 35.4275 7.99728 35.625 7.5 35.625C7.00272 35.625 6.52581 35.4275 6.17417 35.0758C5.82254 34.7242 5.625 34.2473 5.625 33.75V31.875H9.375V33.75Z" fill="#D40063"/>
<path d="M38.875 19.3875L37.8313 19.1788C37.6757 18.6371 37.4589 18.115 37.185 17.6225L37.7763 16.735C37.8563 16.6148 37.8922 16.4707 37.878 16.327C37.8637 16.1833 37.8002 16.049 37.6981 15.9469L35.9306 14.1794C35.8285 14.0773 35.6942 14.0138 35.5505 13.9995C35.4068 13.9853 35.2627 14.0212 35.1425 14.1013L34.255 14.6925C33.7625 14.4187 33.2404 14.2019 32.6988 14.0463L32.4875 13C32.4587 12.8588 32.382 12.732 32.2704 12.6408C32.1588 12.5497 32.0191 12.5 31.875 12.5H29.375C29.2309 12.5 29.0913 12.5497 28.9796 12.6408C28.868 12.732 28.7913 12.8588 28.7625 13L28.5538 14.0437C28.0121 14.1994 27.49 14.4162 26.9975 14.69L26.11 14.0988C25.9901 14.018 25.8457 13.9817 25.7019 13.9959C25.558 14.0102 25.4236 14.0742 25.3219 14.1769L23.5544 15.9444C23.4523 16.0465 23.3888 16.1808 23.3745 16.3245C23.3603 16.4682 23.3962 16.6123 23.4763 16.7325L24.0675 17.62C23.7936 18.1125 23.5768 18.6346 23.4213 19.1762L22.3775 19.385C22.2355 19.4134 22.1077 19.4902 22.016 19.6024C21.9244 19.7146 21.8745 19.8551 21.875 20V22.5C21.875 22.6441 21.9247 22.7837 22.0158 22.8954C22.107 23.007 22.2338 23.0837 22.375 23.1125L23.4188 23.3212C23.5743 23.8629 23.7911 24.385 24.065 24.8775L23.4738 25.765C23.3937 25.8852 23.3578 26.0293 23.372 26.173C23.3863 26.3167 23.4498 26.451 23.5519 26.5531L25.3194 28.3206C25.4215 28.4227 25.5558 28.4862 25.6995 28.5005C25.8432 28.5147 25.9873 28.4788 26.1075 28.3988L26.995 27.8075C27.4876 28.0812 28.0097 28.298 28.5513 28.4538L28.76 29.4975C28.7884 29.6396 28.8653 29.7673 28.9774 29.859C29.0896 29.9506 29.2301 30.0005 29.375 30H31.875C32.0191 30 32.1588 29.9503 32.2704 29.8592C32.382 29.768 32.4587 29.6412 32.4875 29.5L32.6963 28.4562C33.2378 28.3005 33.7599 28.0837 34.2525 27.81L35.14 28.4013C35.2602 28.4813 35.4044 28.5172 35.548 28.503C35.6917 28.4887 35.826 28.4252 35.9281 28.3231L37.6956 26.5556C37.7977 26.4535 37.8612 26.3192 37.8755 26.1755C37.8897 26.0318 37.8538 25.8877 37.7738 25.7675L37.1825 24.88C37.4564 24.3875 37.6732 23.8654 37.8288 23.3238L38.8725 23.115C39.0146 23.0866 39.1423 23.0098 39.234 22.8976C39.3257 22.7854 39.3755 22.6449 39.375 22.5V20C39.375 19.8559 39.3253 19.7163 39.2342 19.6046C39.1431 19.493 39.0162 19.4163 38.875 19.3875ZM38.125 21.9881L37.1994 22.1756C37.0813 22.1992 36.9725 22.2564 36.8861 22.3403C36.7997 22.4243 36.7394 22.5314 36.7125 22.6487C36.5567 23.3286 36.2873 23.9773 35.9156 24.5675C35.8515 24.6696 35.8183 24.788 35.8199 24.9086C35.8216 25.0291 35.8581 25.1466 35.925 25.2469L36.45 26.0337L35.4069 27.0769L34.6194 26.5519C34.519 26.4851 34.4015 26.4487 34.281 26.4471C34.1604 26.4456 34.042 26.4789 33.94 26.5431C33.3497 26.9146 32.701 27.184 32.0213 27.34C31.9039 27.3669 31.7968 27.4272 31.7128 27.5136C31.6289 27.6 31.5717 27.7088 31.5481 27.8269L31.3625 28.75H29.8875L29.7 27.8244C29.6764 27.7063 29.6192 27.5975 29.5353 27.5111C29.4514 27.4247 29.3443 27.3644 29.2269 27.3375C28.5471 27.1815 27.8985 26.9121 27.3081 26.5406C27.2061 26.4764 27.0877 26.4431 26.9671 26.4446C26.8466 26.4462 26.7291 26.4826 26.6288 26.5494L25.8413 27.0744L24.8 26.0313L25.325 25.2444C25.3919 25.1441 25.4284 25.0266 25.4301 24.9061C25.4317 24.7855 25.3985 24.6671 25.3344 24.565C24.9627 23.9748 24.6933 23.3261 24.5375 22.6463C24.5106 22.5289 24.4503 22.4218 24.3639 22.3378C24.2775 22.2539 24.1687 22.1967 24.0506 22.1731L23.125 21.9881V20.5119L24.0506 20.3244C24.1687 20.3008 24.2775 20.2436 24.3639 20.1597C24.4503 20.0757 24.5106 19.9686 24.5375 19.8512C24.6933 19.1714 24.9627 18.5227 25.3344 17.9325C25.3985 17.8304 25.4317 17.712 25.4301 17.5914C25.4284 17.4709 25.3919 17.3534 25.325 17.2531L24.8 16.4663L25.8431 15.4231L26.6306 15.9475C26.7309 16.0142 26.8483 16.0505 26.9687 16.0521C27.0891 16.0536 27.2074 16.0203 27.3094 15.9563C27.9001 15.5852 28.5489 15.316 29.2288 15.16C29.3461 15.1331 29.4532 15.0728 29.5372 14.9864C29.6211 14.9 29.6783 14.7912 29.7019 14.6731L29.8875 13.75H31.3625L31.55 14.6756C31.5736 14.7937 31.6308 14.9025 31.7147 14.9889C31.7986 15.0753 31.9057 15.1356 32.0231 15.1625C32.703 15.3185 33.3518 15.5877 33.9425 15.9588C34.0445 16.0228 34.1628 16.0561 34.2832 16.0546C34.4036 16.053 34.521 16.0167 34.6213 15.95L35.4088 15.4256L36.45 16.4688L35.925 17.2556C35.8581 17.3559 35.8216 17.4734 35.8199 17.5939C35.8183 17.7145 35.8515 17.8329 35.9156 17.935C36.2873 18.5252 36.5567 19.1739 36.7125 19.8538C36.7394 19.9711 36.7997 20.0782 36.8861 20.1622C36.9725 20.2461 37.0813 20.3033 37.1994 20.3269L38.125 20.5144V21.9881Z" fill="#D40063"/>
<path d="M30.625 16.875C29.7597 16.875 28.9138 17.1316 28.1944 17.6123C27.4749 18.0931 26.9142 18.7763 26.583 19.5758C26.2519 20.3752 26.1653 21.2549 26.3341 22.1035C26.5029 22.9522 26.9196 23.7317 27.5314 24.3436C28.1433 24.9554 28.9228 25.3721 29.7715 25.5409C30.6201 25.7097 31.4998 25.6231 32.2992 25.292C33.0987 24.9608 33.7819 24.4001 34.2627 23.6806C34.7434 22.9612 35 22.1153 35 21.25C34.9987 20.0901 34.5373 18.9781 33.7171 18.1579C32.8969 17.3377 31.7849 16.8763 30.625 16.875ZM30.625 24.375C30.0069 24.375 29.4027 24.1917 28.8888 23.8483C28.3749 23.505 27.9744 23.0169 27.7379 22.4459C27.5014 21.8749 27.4395 21.2465 27.56 20.6403C27.6806 20.0342 27.9783 19.4773 28.4153 19.0403C28.8523 18.6033 29.4092 18.3056 30.0153 18.185C30.6215 18.0645 31.2499 18.1264 31.8209 18.3629C32.3919 18.5994 32.88 18.9999 33.2233 19.5138C33.5667 20.0277 33.75 20.6319 33.75 21.25C33.749 22.0785 33.4194 22.8728 32.8336 23.4586C32.2478 24.0444 31.4535 24.374 30.625 24.375Z" fill="#D40063"/>
</g>
<defs>
<clipPath id="clip0_2227_18447">
<rect width="40" height="40" fill="white"/>
</clipPath>
</defs>
</svg>
