<svg width="40" height="40" viewBox="0 0 40 40" fill="none" xmlns="http://www.w3.org/2000/svg">
<path d="M23.6992 36.0489C21.7325 36.0489 18.9492 34.6656 16.7492 28.0489L15.5492 24.4489L11.9492 23.2489C5.34915 21.0489 3.96582 18.2656 3.96582 16.2989C3.96582 14.3489 5.34915 11.5489 11.9492 9.33223L26.0992 4.61556C29.6325 3.43223 32.5825 3.78223 34.3992 5.58223C36.2158 7.38223 36.5658 10.3489 35.3825 13.8822L30.6658 28.0322C28.4492 34.6656 25.6658 36.0489 23.6992 36.0489ZM12.7325 11.7156C8.09915 13.2656 6.44915 15.0989 6.44915 16.2989C6.44915 17.4989 8.09915 19.3322 12.7325 20.8656L16.9325 22.2656C17.2992 22.3822 17.5992 22.6822 17.7158 23.0489L19.1158 27.2489C20.6492 31.8822 22.4992 33.5322 23.6992 33.5322C24.8992 33.5322 26.7325 31.8822 28.2825 27.2489L32.9991 13.0989C33.8491 10.5322 33.6992 8.43223 32.6158 7.3489C31.5325 6.26556 29.4325 6.13223 26.8825 6.98223L12.7325 11.7156Z" fill="currentColor"/>
<path d="M16.8503 23.9987C16.5337 23.9987 16.217 23.882 15.967 23.632C15.4837 23.1487 15.4837 22.3487 15.967 21.8654L21.9337 15.882C22.417 15.3987 23.217 15.3987 23.7003 15.882C24.1837 16.3654 24.1837 17.1654 23.7003 17.6487L17.7337 23.632C17.5003 23.882 17.167 23.9987 16.8503 23.9987Z" fill="currentColor"/>
</svg>
