<svg width="50" height="50" viewBox="0 0 50 50" fill="none" xmlns="http://www.w3.org/2000/svg">
<g fill="none">
<path d="M25.275 18.3926C28.3705 18.3926 30.88 15.9039 30.88 12.834C30.88 9.76405 28.3705 7.27539 25.275 7.27539C22.1794 7.27539 19.6699 9.76405 19.6699 12.834C19.6699 15.9039 22.1794 18.3926 25.275 18.3926Z" stroke="#D40063" stroke-width="2" stroke-miterlimit="10" stroke-linecap="round" stroke-linejoin="round"/>
<path d="M28.9492 4.26876L30.3276 0.988281" stroke="#D40063" stroke-width="2" stroke-miterlimit="10" stroke-linecap="round" stroke-linejoin="round"/>
<path d="M20.2227 24.591L21.601 21.3105" stroke="#D40063" stroke-width="2" stroke-miterlimit="10" stroke-linecap="round" stroke-linejoin="round"/>
<path d="M33.7266 8.82454L36.9426 7.27539" stroke="#D40063" stroke-width="2" stroke-miterlimit="10" stroke-linecap="round" stroke-linejoin="round"/>
<path d="M13.6055 18.3011L16.8215 16.752" stroke="#D40063" stroke-width="2" stroke-miterlimit="10" stroke-linecap="round" stroke-linejoin="round"/>
<path d="M34.0039 16.1152L37.3118 17.391" stroke="#D40063" stroke-width="2" stroke-miterlimit="10" stroke-linecap="round" stroke-linejoin="round"/>
<path d="M13.2383 8.1875L16.5461 9.46331" stroke="#D40063" stroke-width="2" stroke-miterlimit="10" stroke-linecap="round" stroke-linejoin="round"/>
<path d="M21.968 4.08517L20.7734 0.804688" stroke="#D40063" stroke-width="2" stroke-miterlimit="10" stroke-linecap="round" stroke-linejoin="round"/>
<path d="M29.8704 24.7727L28.584 21.4922" stroke="#D40063" stroke-width="2" stroke-miterlimit="10" stroke-linecap="round" stroke-linejoin="round"/>
<path d="M48.9802 29.9648H0.832031V49.1921H48.9802V29.9648Z" stroke="#D40063" stroke-width="2" stroke-miterlimit="10" stroke-linecap="round" stroke-linejoin="round"/>
<path d="M10.1125 29.9648C10.0206 29.9648 0.832031 49.1921 0.832031 49.1921" stroke="#D40063" stroke-width="2" stroke-miterlimit="10" stroke-linecap="round" stroke-linejoin="round"/>
<path d="M15.8109 29.9648L11.4922 49.1921" stroke="#D40063" stroke-width="2" stroke-miterlimit="10" stroke-linecap="round" stroke-linejoin="round"/>
<path d="M21.9674 29.9648L21.3242 49.1921" stroke="#D40063" stroke-width="2" stroke-miterlimit="10" stroke-linecap="round" stroke-linejoin="round"/>
<path d="M28.582 29.9648L30.3279 49.1921" stroke="#D40063" stroke-width="2" stroke-miterlimit="10" stroke-linecap="round" stroke-linejoin="round"/>
<path d="M34.7383 29.9648L40.2514 49.1921" stroke="#D40063" stroke-width="2" stroke-miterlimit="10" stroke-linecap="round" stroke-linejoin="round"/>
<path d="M48.9818 49.1921L41.5391 29.9648" stroke="#D40063" stroke-width="2" stroke-miterlimit="10" stroke-linecap="round" stroke-linejoin="round"/>
</g>
<defs>
<clipPath id="clip0_2227_22297">
<rect width="50" height="50" fill="white"/>
</clipPath>
</defs>
</svg>
