<?xml version="1.0" encoding="UTF-8"?> <svg xmlns="http://www.w3.org/2000/svg" width="136" height="50" viewBox="0 0 136 50" fill="none"><g clip-path="url(#clip0_2319_3872)"><path d="M10.1641 12.9014H18.1396C19.8081 12.9014 21.2404 13.1526 22.4364 13.6552C23.6325 14.1578 24.5522 14.9015 25.1955 15.8865C25.8387 16.8715 26.1604 18.0827 26.1604 19.52C26.1604 20.6558 25.9593 21.6408 25.5573 22.475C25.1553 23.3093 24.5874 24.0078 23.8536 24.5707C23.13 25.1335 22.2756 25.5758 21.2906 25.8974L19.994 26.5608H12.9532L12.9231 23.2892H18.1848C19.0392 23.2892 19.7478 23.1384 20.3106 22.8369C20.8735 22.5353 21.2956 22.1182 21.5771 21.5855C21.8685 21.0528 22.0143 20.4447 22.0143 19.7612C22.0143 19.0275 21.8736 18.3943 21.5921 17.8616C21.3107 17.3188 20.8835 16.9017 20.3106 16.6102C19.7377 16.3187 19.014 16.173 18.1396 16.173H14.3101V34.8529H10.1641V12.9014ZM22.557 34.8529L17.4762 25.023L21.8635 25.0079L27.0047 34.6419V34.8529H22.557Z" fill="#EC483B"></path><path d="M33.4725 21.872V34.8529H29.4923V18.54H33.2615L33.4725 21.872ZM38.4327 18.4345L38.3724 22.1433C38.1513 22.1031 37.9 22.073 37.6186 22.0529C37.3472 22.0328 37.0909 22.0227 36.8497 22.0227C36.2366 22.0227 35.6988 22.1082 35.2365 22.279C34.7741 22.4398 34.3872 22.676 34.0756 22.9876C33.7741 23.2992 33.5429 23.6812 33.3821 24.1335C33.2212 24.5757 33.1308 25.0783 33.1107 25.6411L32.2513 25.5356C32.2513 24.5003 32.3569 23.5404 32.5679 22.6559C32.779 21.7714 33.0856 20.9975 33.4876 20.3341C33.8896 19.6708 34.3922 19.1582 34.9953 18.7963C35.6084 18.4244 36.312 18.2385 37.106 18.2385C37.3271 18.2385 37.5633 18.2586 37.8146 18.2988C38.0759 18.329 38.282 18.3742 38.4327 18.4345Z" fill="#EC483B"></path><rect x="2" y="2" width="45.3694" height="45.3694" rx="6" stroke="#EC483B" stroke-width="2"></rect><path d="M61.0361 15.519H63.8101C63.7544 16.4282 63.5039 17.2354 63.0586 17.9404C62.6195 18.6455 62.0041 19.196 61.2124 19.5918C60.4269 19.9876 59.4806 20.1855 58.3735 20.1855C57.5076 20.1855 56.7314 20.0371 56.0449 19.7402C55.3584 19.4372 54.7708 19.0042 54.2822 18.4414C53.7998 17.8786 53.4318 17.1982 53.1782 16.4004C52.9246 15.6025 52.7979 14.7088 52.7979 13.7192V12.7822C52.7979 11.7926 52.9277 10.8989 53.1875 10.1011C53.4535 9.29704 53.8307 8.61361 54.3193 8.05078C54.8141 7.48796 55.4048 7.05501 56.0913 6.75195C56.7778 6.44889 57.5448 6.29736 58.3921 6.29736C59.5177 6.29736 60.4671 6.50146 61.2402 6.90967C62.0195 7.31787 62.6226 7.8807 63.0493 8.59814C63.4823 9.31559 63.742 10.132 63.8286 11.0474H61.0454C61.0145 10.5031 60.9062 10.0423 60.7207 9.66504C60.5352 9.28158 60.2537 8.99398 59.8765 8.80225C59.5054 8.60433 59.0106 8.50537 58.3921 8.50537C57.9282 8.50537 57.5231 8.59196 57.1768 8.76514C56.8304 8.93831 56.5397 9.20117 56.3047 9.55371C56.0697 9.90625 55.8934 10.3516 55.7759 10.8896C55.6646 11.4215 55.6089 12.0462 55.6089 12.7637V13.7192C55.6089 14.4181 55.6615 15.0335 55.7666 15.5654C55.8717 16.0911 56.0326 16.5365 56.249 16.9014C56.4717 17.2601 56.7562 17.5322 57.1025 17.7178C57.4551 17.8971 57.8787 17.9868 58.3735 17.9868C58.9549 17.9868 59.4342 17.894 59.8115 17.7085C60.1888 17.5229 60.4764 17.2477 60.6743 16.8828C60.8784 16.5179 60.999 16.0633 61.0361 15.519ZM70.5825 9.96191V20H67.9014V9.96191H70.5825ZM73.811 9.96191V12.0308H64.7192V9.96191H73.811ZM78.2642 18.8682L80.9268 9.96191H83.7935L79.7578 21.5122C79.6712 21.7658 79.5537 22.0379 79.4053 22.3286C79.263 22.6193 79.0682 22.8945 78.8208 23.1543C78.5796 23.4202 78.2734 23.6367 77.9023 23.8037C77.5374 23.9707 77.089 24.0542 76.5571 24.0542C76.3035 24.0542 76.0964 24.0387 75.9355 24.0078C75.7747 23.9769 75.583 23.9336 75.3604 23.8779V21.9204C75.4284 21.9204 75.4995 21.9204 75.5737 21.9204C75.6479 21.9266 75.7191 21.9297 75.7871 21.9297C76.1396 21.9297 76.4272 21.8895 76.6499 21.8091C76.8726 21.7287 77.0519 21.605 77.188 21.438C77.3241 21.2772 77.4323 21.0669 77.5127 20.8071L78.2642 18.8682ZM77.1509 9.96191L79.3311 17.2354L79.7114 20.0649L77.8931 20.2598L74.2842 9.96191H77.1509ZM86.1499 9.96191H88.8218L88.7383 13.3203C88.7135 14.3965 88.5898 15.3211 88.3672 16.0942C88.1445 16.8674 87.8477 17.5168 87.4766 18.0425C87.1055 18.5682 86.6818 18.9888 86.2056 19.3042C85.7355 19.6134 85.2407 19.8454 84.7212 20H84.2202L84.1924 17.9404L84.4707 17.9126C84.7861 17.5848 85.0459 17.2663 85.25 16.957C85.4541 16.6416 85.6118 16.3107 85.7231 15.9644C85.8345 15.618 85.9149 15.2314 85.9644 14.8047C86.02 14.3779 86.054 13.8831 86.0664 13.3203L86.1499 9.96191ZM86.8735 9.96191H93.5254V20H90.8628V12.105H86.8735V9.96191ZM83.6079 17.9126H94.9634V23.0151H92.2915V20H86.3447V23.0151H83.6079V17.9126ZM98.8784 16.2705L102.246 9.96191H104.918V20H102.246V13.6821L98.8784 20H96.2065V9.96191H98.8784V16.2705ZM109.139 14.9902H111.848L109.056 20H106.356L109.139 14.9902ZM110.939 9.96191H115.346V20H112.674V12.0308H110.939C110.574 12.0308 110.271 12.0988 110.03 12.2349C109.789 12.3647 109.609 12.5348 109.492 12.7451C109.38 12.9492 109.325 13.1595 109.325 13.376C109.325 13.5863 109.38 13.7904 109.492 13.9883C109.603 14.1862 109.776 14.3501 110.011 14.48C110.246 14.6099 110.54 14.6748 110.893 14.6748H113.667V16.4932H110.893C110.231 16.4932 109.637 16.4128 109.111 16.252C108.592 16.0911 108.146 15.8685 107.775 15.584C107.41 15.2933 107.129 14.9562 106.931 14.5728C106.739 14.1831 106.644 13.7563 106.644 13.2925C106.644 12.8101 106.743 12.3678 106.94 11.9658C107.138 11.5638 107.423 11.2113 107.794 10.9082C108.165 10.6051 108.613 10.3732 109.139 10.2124C109.671 10.0454 110.271 9.96191 110.939 9.96191ZM53.2061 27.4922H58.2437C59.2765 27.4922 60.1641 27.6468 60.9062 27.9561C61.6546 28.2653 62.2298 28.723 62.6318 29.3291C63.0339 29.9352 63.2349 30.6805 63.2349 31.5649C63.2349 32.2886 63.1112 32.9102 62.8638 33.4297C62.6226 33.943 62.2793 34.3729 61.834 34.7192C61.3949 35.0594 60.8784 35.3315 60.2847 35.5356L59.4033 35.9995H55.0244L55.0059 33.8286H58.2622C58.7508 33.8286 59.1559 33.742 59.4775 33.5688C59.7992 33.3957 60.0404 33.1545 60.2012 32.8452C60.3682 32.536 60.4517 32.1772 60.4517 31.769C60.4517 31.3361 60.3713 30.9619 60.2104 30.6465C60.0496 30.3311 59.8053 30.0898 59.4775 29.9229C59.1497 29.7559 58.7384 29.6724 58.2437 29.6724H55.9893V41H53.2061V27.4922ZM60.7578 41L57.6777 34.979L60.6187 34.9604L63.7358 40.8701V41H60.7578ZM64.7842 36.083V35.8882C64.7842 35.1522 64.8893 34.4749 65.0996 33.8564C65.3099 33.2318 65.616 32.6906 66.0181 32.2329C66.4201 31.7752 66.9149 31.4196 67.5024 31.166C68.09 30.9062 68.7642 30.7764 69.5249 30.7764C70.2856 30.7764 70.9629 30.9062 71.5566 31.166C72.1504 31.4196 72.6483 31.7752 73.0503 32.2329C73.4585 32.6906 73.7677 33.2318 73.978 33.8564C74.1883 34.4749 74.2935 35.1522 74.2935 35.8882V36.083C74.2935 36.8128 74.1883 37.4901 73.978 38.1147C73.7677 38.7332 73.4585 39.2744 73.0503 39.7383C72.6483 40.196 72.1535 40.5516 71.5659 40.8052C70.9784 41.0588 70.3042 41.1855 69.5435 41.1855C68.7827 41.1855 68.1055 41.0588 67.5117 40.8052C66.9242 40.5516 66.4263 40.196 66.0181 39.7383C65.616 39.2744 65.3099 38.7332 65.0996 38.1147C64.8893 37.4901 64.7842 36.8128 64.7842 36.083ZM67.4561 35.8882V36.083C67.4561 36.5036 67.4932 36.8963 67.5674 37.2612C67.6416 37.6261 67.7591 37.9478 67.9199 38.2261C68.0869 38.4982 68.3034 38.7116 68.5693 38.8662C68.8353 39.0208 69.16 39.0981 69.5435 39.0981C69.9146 39.0981 70.2331 39.0208 70.499 38.8662C70.765 38.7116 70.9784 38.4982 71.1392 38.2261C71.3 37.9478 71.4175 37.6261 71.4917 37.2612C71.5721 36.8963 71.6123 36.5036 71.6123 36.083V35.8882C71.6123 35.48 71.5721 35.0965 71.4917 34.7378C71.4175 34.3729 71.2969 34.0513 71.1299 33.7729C70.9691 33.4884 70.7557 33.2658 70.4897 33.105C70.2238 32.9442 69.9022 32.8638 69.5249 32.8638C69.1476 32.8638 68.826 32.9442 68.5601 33.105C68.3003 33.2658 68.0869 33.4884 67.9199 33.7729C67.7591 34.0513 67.6416 34.3729 67.5674 34.7378C67.4932 35.0965 67.4561 35.48 67.4561 35.8882ZM83.7749 38.9126V41H76.1489V38.9126H83.7749ZM83.6265 32.502L77.2251 41H75.4346V39.4136L81.8081 30.9619H83.6265V32.502ZM82.6802 30.9619V33.0586H75.583V30.9619H82.6802ZM88.126 33.04V41H85.4448V30.9619H87.959L88.126 33.04ZM87.7549 35.6284H87.0127C87.0127 34.9295 87.0962 34.2863 87.2632 33.6987C87.4364 33.105 87.6868 32.5916 88.0146 32.1587C88.3486 31.7196 88.7599 31.3794 89.2485 31.1382C89.7371 30.897 90.3031 30.7764 90.9463 30.7764C91.3916 30.7764 91.7998 30.8444 92.1709 30.9805C92.542 31.1104 92.8605 31.3175 93.1265 31.6021C93.3986 31.8804 93.6089 32.2453 93.7573 32.6968C93.9058 33.1421 93.98 33.6771 93.98 34.3018V41H91.3081V34.5986C91.3081 34.141 91.2463 33.7884 91.1226 33.541C90.9989 33.2936 90.8226 33.1204 90.5938 33.0215C90.3711 32.9225 90.1021 32.873 89.7866 32.873C89.4403 32.873 89.1372 32.9442 88.8774 33.0864C88.6239 33.2287 88.4136 33.4266 88.2466 33.6802C88.0796 33.9276 87.9559 34.2183 87.8755 34.5522C87.7951 34.8862 87.7549 35.245 87.7549 35.6284ZM93.7295 35.3223L92.7739 35.4429C92.7739 34.7873 92.8543 34.1781 93.0151 33.6152C93.1821 33.0524 93.4264 32.5576 93.748 32.1309C94.0758 31.7041 94.481 31.3732 94.9634 31.1382C95.4458 30.897 96.0024 30.7764 96.6333 30.7764C97.1157 30.7764 97.5549 30.8475 97.9507 30.9897C98.3465 31.1258 98.6836 31.3454 98.9619 31.6484C99.2464 31.9453 99.4629 32.335 99.6113 32.8174C99.766 33.2998 99.8433 33.8905 99.8433 34.5894V41H97.1621V34.5894C97.1621 34.1255 97.1003 33.7729 96.9766 33.5317C96.859 33.2843 96.6859 33.1143 96.457 33.0215C96.2344 32.9225 95.9684 32.873 95.6592 32.873C95.3376 32.873 95.0562 32.938 94.8149 33.0679C94.5737 33.1916 94.3727 33.3647 94.2119 33.5874C94.0511 33.8101 93.9305 34.0698 93.8501 34.3667C93.7697 34.6574 93.7295 34.9759 93.7295 35.3223ZM107.85 38.5972V30.9619H110.521V41H108.007L107.85 38.5972ZM108.146 36.5376L108.935 36.519C108.935 37.187 108.858 37.8086 108.703 38.3838C108.549 38.9528 108.317 39.4476 108.007 39.8682C107.698 40.2826 107.308 40.6073 106.838 40.8423C106.368 41.0711 105.815 41.1855 105.178 41.1855C104.689 41.1855 104.238 41.1175 103.823 40.9814C103.415 40.8392 103.062 40.6196 102.766 40.3228C102.475 40.0197 102.246 39.6331 102.079 39.1631C101.918 38.6868 101.838 38.1147 101.838 37.4468V30.9619H104.51V37.4653C104.51 37.7622 104.544 38.0127 104.612 38.2168C104.686 38.4209 104.788 38.5879 104.918 38.7178C105.048 38.8477 105.199 38.9404 105.373 38.9961C105.552 39.0518 105.75 39.0796 105.966 39.0796C106.517 39.0796 106.95 38.9683 107.265 38.7456C107.587 38.5229 107.812 38.2199 107.942 37.8364C108.078 37.4468 108.146 37.0138 108.146 36.5376ZM117.98 38.7363V34.2646C117.98 33.943 117.928 33.6678 117.823 33.439C117.718 33.2039 117.554 33.0215 117.331 32.8916C117.115 32.7617 116.833 32.6968 116.487 32.6968C116.19 32.6968 115.933 32.7493 115.717 32.8545C115.5 32.9535 115.333 33.0988 115.216 33.2905C115.098 33.4761 115.04 33.6956 115.04 33.9492H112.368C112.368 33.5225 112.467 33.1174 112.665 32.7339C112.862 32.3504 113.15 32.0133 113.527 31.7227C113.905 31.4258 114.353 31.1938 114.873 31.0269C115.398 30.8599 115.986 30.7764 116.635 30.7764C117.415 30.7764 118.107 30.9062 118.713 31.166C119.319 31.4258 119.796 31.8154 120.142 32.335C120.495 32.8545 120.671 33.5039 120.671 34.2832V38.5786C120.671 39.1291 120.705 39.5806 120.773 39.9331C120.841 40.2795 120.94 40.5825 121.07 40.8423V41H118.37C118.24 40.7279 118.141 40.3877 118.073 39.9795C118.011 39.5651 117.98 39.1507 117.98 38.7363ZM118.333 34.8862L118.352 36.3984H116.858C116.505 36.3984 116.199 36.4386 115.939 36.519C115.68 36.5994 115.466 36.7139 115.299 36.8623C115.132 37.0046 115.009 37.1715 114.928 37.3633C114.854 37.555 114.817 37.7653 114.817 37.9941C114.817 38.223 114.869 38.4302 114.975 38.6157C115.08 38.7951 115.231 38.9373 115.429 39.0425C115.627 39.1414 115.859 39.1909 116.125 39.1909C116.527 39.1909 116.876 39.1105 117.173 38.9497C117.47 38.7889 117.699 38.591 117.86 38.356C118.027 38.1209 118.113 37.8983 118.12 37.688L118.825 38.8198C118.726 39.0734 118.59 39.3363 118.417 39.6084C118.25 39.8805 118.036 40.1372 117.776 40.3784C117.517 40.6134 117.204 40.8083 116.839 40.9629C116.474 41.1113 116.042 41.1855 115.541 41.1855C114.903 41.1855 114.325 41.0588 113.806 40.8052C113.292 40.5454 112.884 40.1898 112.581 39.7383C112.284 39.2806 112.136 38.7611 112.136 38.1797C112.136 37.654 112.235 37.187 112.433 36.7788C112.631 36.3706 112.921 36.0273 113.305 35.749C113.694 35.4645 114.18 35.2511 114.761 35.1089C115.343 34.9604 116.017 34.8862 116.784 34.8862H118.333ZM125.402 33.1514V41H122.73V30.9619H125.245L125.402 33.1514ZM128.427 30.897L128.38 33.374C128.25 33.3555 128.093 33.34 127.907 33.3276C127.728 33.3091 127.564 33.2998 127.416 33.2998C127.038 33.2998 126.71 33.3493 126.432 33.4482C126.16 33.541 125.931 33.6802 125.746 33.8657C125.566 34.0513 125.43 34.277 125.337 34.543C125.251 34.8089 125.201 35.112 125.189 35.4521L124.651 35.2852C124.651 34.6357 124.716 34.0389 124.846 33.4946C124.976 32.9442 125.164 32.4648 125.412 32.0566C125.665 31.6484 125.974 31.333 126.339 31.1104C126.704 30.8877 127.122 30.7764 127.592 30.7764C127.74 30.7764 127.892 30.7887 128.046 30.8135C128.201 30.832 128.328 30.8599 128.427 30.897Z" fill="#1C2528"></path></g><defs><clipPath id="clip0_2319_3872"><rect width="136" height="50" fill="white"></rect></clipPath></defs></svg> 